<?xml version="1.0" encoding="UTF-8"?>
<svg xmlns="http://www.w3.org/2000/svg" xmlns:xlink="http://www.w3.org/1999/xlink" width="40px" height="40px" viewBox="0 0 40 40" version="1.1">
<g id="surface1">
<path style=" stroke:none;fill-rule:nonzero;fill:rgb(10.196078%,9.019608%,10.588235%);fill-opacity:1;" d="M 40 20.050781 C 40 31.054688 31.046875 39.972656 20 39.972656 C 8.953125 39.972656 0 31.054688 0 20.050781 C 0 9.046875 8.953125 0.128906 20 0.128906 C 31.046875 0.128906 40 9.046875 40 20.050781 Z M 40 20.050781 "/>
<path style=" stroke:none;fill-rule:nonzero;fill:rgb(100%,100%,100%);fill-opacity:1;" d="M 28.703125 7.488281 C 26.675781 7.5625 24.902344 8.675781 23.585938 10.214844 C 22.125 11.90625 21.15625 13.910156 20.457031 15.953125 C 19.203125 14.933594 18.238281 13.609375 16.230469 13.03125 C 14.679688 12.589844 13.046875 12.773438 11.550781 13.886719 C 10.839844 14.414062 10.347656 15.210938 10.117188 15.960938 C 9.515625 17.914062 10.75 19.652344 11.3125 20.273438 L 12.539062 21.585938 C 12.792969 21.839844 13.402344 22.511719 13.101562 23.472656 C 12.78125 24.515625 11.515625 25.191406 10.21875 24.792969 C 9.640625 24.617188 8.808594 24.1875 8.996094 23.582031 C 9.074219 23.335938 9.25 23.148438 9.347656 22.9375 C 9.433594 22.753906 9.476562 22.613281 9.5 22.535156 C 9.738281 21.761719 9.414062 20.761719 8.585938 20.507812 C 7.8125 20.269531 7.023438 20.457031 6.714844 21.449219 C 6.367188 22.574219 6.910156 24.617188 9.808594 25.507812 C 13.203125 26.546875 16.074219 24.707031 16.480469 22.304688 C 16.738281 20.800781 16.054688 19.683594 14.808594 18.246094 L 13.789062 17.125 C 13.171875 16.511719 12.960938 15.464844 13.597656 14.660156 C 14.136719 13.984375 14.90625 13.695312 16.160156 14.035156 C 17.992188 14.53125 18.8125 15.796875 20.175781 16.820312 C 19.613281 18.65625 19.242188 20.503906 18.910156 22.160156 L 18.707031 23.394531 C 17.734375 28.488281 16.988281 31.285156 15.054688 32.890625 C 14.664062 33.164062 14.109375 33.578125 13.269531 33.605469 C 12.828125 33.621094 12.6875 33.320312 12.679688 33.1875 C 12.671875 32.878906 12.929688 32.738281 13.105469 32.601562 C 13.363281 32.460938 13.753906 32.226562 13.726562 31.480469 C 13.699219 30.601562 12.964844 29.835938 11.90625 29.871094 C 11.113281 29.898438 9.902344 30.640625 9.949219 32.003906 C 9.996094 33.410156 11.3125 34.464844 13.296875 34.398438 C 14.355469 34.363281 16.726562 33.929688 19.0625 31.167969 C 21.777344 27.996094 22.539062 24.363281 23.109375 21.707031 L 23.75 18.195312 C 24.101562 18.238281 24.480469 18.265625 24.894531 18.273438 C 28.277344 18.347656 29.972656 16.601562 29.996094 15.328125 C 30.011719 14.5625 29.492188 13.804688 28.757812 13.820312 C 28.234375 13.835938 27.574219 14.183594 27.417969 14.90625 C 27.261719 15.613281 28.496094 16.253906 27.53125 16.875 C 26.847656 17.316406 25.621094 17.625 23.894531 17.375 L 24.210938 15.644531 C 24.851562 12.367188 25.640625 8.339844 28.636719 8.238281 C 28.855469 8.230469 29.65625 8.25 29.675781 8.777344 C 29.679688 8.953125 29.636719 8.996094 29.429688 9.398438 C 29.21875 9.714844 29.140625 9.980469 29.148438 10.289062 C 29.179688 11.125 29.816406 11.675781 30.742188 11.640625 C 31.976562 11.601562 32.332031 10.402344 32.3125 9.785156 C 32.261719 8.339844 30.730469 7.425781 28.703125 7.488281 Z M 28.703125 7.488281 "/>
</g>
</svg>
