<?xml version="1.0" encoding="UTF-8"?>
<svg xmlns="http://www.w3.org/2000/svg" xmlns:xlink="http://www.w3.org/1999/xlink" width="42px" height="42px" viewBox="0 0 42 42" version="1.1">
<g id="surface1">
<path style=" stroke:none;fill-rule:nonzero;fill:rgb(50.196078%,50.196078%,50.196078%);fill-opacity:1;" d="M 41.085938 21 C 41.085938 9.910156 32.089844 0.917969 21 0.917969 C 9.910156 0.917969 0.914062 9.910156 0.914062 21 C 0.914062 32.089844 9.910156 41.082031 21 41.082031 C 32.089844 41.082031 41.085938 32.089844 41.085938 21 Z M 41.085938 21 "/>
<path style=" stroke:none;fill-rule:nonzero;fill:rgb(100%,100%,100%);fill-opacity:1;" d="M 9.726562 12.105469 C 9.171875 12.105469 8.726562 12.558594 8.726562 13.109375 L 8.726562 28.890625 C 8.726562 29.441406 9.171875 29.894531 9.726562 29.894531 L 32.273438 29.894531 C 32.828125 29.894531 33.273438 29.441406 33.273438 28.890625 L 33.273438 13.109375 C 33.273438 12.558594 32.828125 12.105469 32.273438 12.105469 Z M 12.394531 14.507812 L 29.597656 14.507812 L 21 22.023438 Z M 31.269531 15.699219 L 31.269531 26.804688 L 24.984375 21.199219 Z M 10.730469 15.707031 L 17.042969 21.226562 L 10.730469 26.855469 Z M 23.464844 22.523438 L 29.449219 27.855469 L 12.613281 27.855469 L 18.566406 22.558594 L 20.335938 24.101562 C 20.714844 24.429688 21.277344 24.429688 21.65625 24.101562 Z M 23.464844 22.523438 "/>
</g>
</svg>
