<?xml version="1.0" encoding="UTF-8"?>
<svg xmlns="http://www.w3.org/2000/svg" xmlns:xlink="http://www.w3.org/1999/xlink" width="70px" height="70px" viewBox="0 0 70 70" version="1.1">
<g id="surface1">
<path style=" stroke:none;fill-rule:nonzero;fill:rgb(14.117647%,16.078431%,21.960784%);fill-opacity:1;" d="M 16.40625 0 L 53.59375 0 C 62.65625 0 70 7.34375 70 16.40625 L 70 53.59375 C 70 62.65625 62.65625 70 53.59375 70 L 16.40625 70 C 7.34375 70 0 62.65625 0 53.59375 L 0 16.40625 C 0 7.34375 7.34375 0 16.40625 0 Z M 16.40625 0 "/>
<path style=" stroke:none;fill-rule:nonzero;fill:rgb(100%,100%,100%);fill-opacity:1;" d="M 28.863281 37.539062 C 29.074219 33.742188 30.921875 30.398438 33.714844 28.027344 C 36.449219 25.699219 40.132812 24.277344 44.152344 24.277344 C 48.167969 24.277344 51.851562 25.699219 54.589844 28.027344 C 57.378906 30.398438 59.226562 33.742188 59.441406 37.535156 C 59.652344 41.433594 58.09375 45.058594 55.355469 47.742188 C 52.566406 50.472656 48.597656 52.1875 44.152344 52.1875 C 39.707031 52.1875 35.730469 50.472656 32.941406 47.742188 C 30.203125 45.058594 28.648438 41.433594 28.863281 37.539062 Z M 28.863281 37.539062 "/>
<path style=" stroke:none;fill-rule:nonzero;fill:rgb(14.901961%,34.117647%,52.941176%);fill-opacity:1;" d="M 36.308594 37.878906 C 36.417969 35.929688 37.367188 34.214844 38.796875 33 C 40.199219 31.804688 42.089844 31.074219 44.152344 31.074219 C 46.214844 31.074219 48.101562 31.804688 49.507812 33 C 50.9375 34.214844 51.886719 35.929688 51.996094 37.875 C 52.105469 39.878906 51.304688 41.738281 49.902344 43.113281 C 48.46875 44.515625 46.433594 45.394531 44.152344 45.394531 C 41.871094 45.394531 39.832031 44.515625 38.402344 43.113281 C 36.996094 41.738281 36.199219 39.878906 36.308594 37.878906 Z M 36.308594 37.878906 "/>
<path style=" stroke:none;fill-rule:nonzero;fill:rgb(91.764706%,46.27451%,0%);fill-opacity:1;" d="M 23.8125 41.8125 C 23.828125 42.574219 24.070312 44.058594 24.433594 45.214844 C 25.195312 47.660156 26.488281 49.925781 28.289062 51.921875 C 30.132812 53.972656 32.410156 55.621094 35.035156 56.792969 C 37.796875 58.019531 40.789062 58.644531 43.894531 58.640625 C 47 58.636719 49.988281 57.996094 52.75 56.761719 C 55.378906 55.578125 57.652344 53.925781 59.496094 51.871094 C 61.292969 49.867188 62.585938 47.597656 63.347656 45.152344 C 63.734375 43.914062 63.976562 42.660156 64.074219 41.398438 C 64.167969 40.15625 64.128906 38.914062 63.953125 37.671875 C 63.613281 35.253906 62.777344 32.980469 61.496094 30.914062 C 60.320312 29.011719 58.808594 27.34375 57.011719 25.941406 L 57.015625 25.941406 L 38.863281 11.933594 C 38.84375 11.921875 38.832031 11.910156 38.816406 11.898438 C 37.625 10.980469 35.621094 10.984375 34.3125 11.902344 C 32.988281 12.835938 32.835938 14.375 34.015625 15.34375 L 34.007812 15.351562 L 41.578125 21.535156 L 18.503906 21.5625 L 18.472656 21.5625 C 16.566406 21.5625 14.730469 22.820312 14.367188 24.410156 C 13.996094 26.027344 15.292969 27.371094 17.273438 27.378906 L 17.273438 27.386719 L 28.96875 27.363281 L 8.097656 43.460938 C 8.070312 43.480469 8.042969 43.5 8.015625 43.519531 C 6.046875 45.035156 5.410156 47.554688 6.652344 49.148438 C 7.910156 50.769531 10.585938 50.773438 12.574219 49.15625 L 23.964844 39.789062 C 23.964844 39.789062 23.800781 41.054688 23.8125 41.8125 Z M 53.085938 46.046875 C 50.738281 48.453125 47.453125 49.8125 43.894531 49.820312 C 40.335938 49.828125 37.050781 48.476562 34.703125 46.078125 C 33.554688 44.910156 32.714844 43.566406 32.195312 42.132812 C 31.683594 40.722656 31.484375 39.230469 31.617188 37.722656 C 31.742188 36.25 32.179688 34.84375 32.875 33.570312 C 33.558594 32.320312 34.503906 31.191406 35.667969 30.234375 C 37.949219 28.367188 40.851562 27.355469 43.890625 27.351562 C 46.933594 27.347656 49.835938 28.351562 52.117188 30.210938 C 53.28125 31.164062 54.222656 32.289062 54.90625 33.539062 C 55.605469 34.808594 56.039062 36.207031 56.167969 37.6875 C 56.296875 39.191406 56.101562 40.683594 55.589844 42.09375 C 55.070312 43.53125 54.230469 44.875 53.085938 46.046875 Z M 53.085938 46.046875 "/>
</g>
</svg>
