<?xml version="1.0" encoding="UTF-8"?>
<svg xmlns="http://www.w3.org/2000/svg" xmlns:xlink="http://www.w3.org/1999/xlink" width="70px" height="70px" viewBox="0 0 70 70" version="1.1">
<g id="surface1">
<path style=" stroke:none;fill-rule:nonzero;fill:rgb(0.784314%,46.666667%,74.117647%);fill-opacity:1;" d="M 16.40625 0 L 53.59375 0 C 62.65625 0 70 7.34375 70 16.40625 L 70 53.59375 C 70 62.65625 62.65625 70 53.59375 70 L 16.40625 70 C 7.34375 70 0 62.65625 0 53.59375 L 0 16.40625 C 0 7.34375 7.34375 0 16.40625 0 Z M 16.40625 0 "/>
<path style=" stroke:none;fill-rule:nonzero;fill:rgb(92.156863%,92.156863%,92.156863%);fill-opacity:1;" d="M 14.699219 28.070312 L 15.480469 36.804688 L 35.027344 36.804688 L 35.027344 28.070312 Z M 14.699219 28.070312 "/>
<path style=" stroke:none;fill-rule:nonzero;fill:rgb(92.156863%,92.156863%,92.156863%);fill-opacity:1;" d="M 35.027344 10.390625 L 13.125 10.390625 L 13.917969 19.125 L 35.027344 19.125 Z M 35.027344 10.390625 "/>
<path style=" stroke:none;fill-rule:nonzero;fill:rgb(92.156863%,92.156863%,92.156863%);fill-opacity:1;" d="M 35.027344 59.839844 L 35.027344 50.753906 L 34.988281 50.761719 L 25.261719 48.136719 L 24.640625 41.167969 L 15.871094 41.167969 L 17.09375 54.882812 L 34.984375 59.851562 Z M 35.027344 59.839844 "/>
<path style=" stroke:none;fill-rule:nonzero;fill:rgb(100%,100%,100%);fill-opacity:1;" d="M 45.75 36.804688 L 44.738281 48.128906 L 34.996094 50.757812 L 34.996094 59.847656 L 52.902344 54.882812 L 53.03125 53.40625 L 55.085938 30.414062 L 55.296875 28.070312 L 56.875 10.390625 L 34.996094 10.390625 L 34.996094 19.125 L 47.304688 19.125 L 46.507812 28.070312 L 34.996094 28.070312 L 34.996094 36.804688 Z M 45.75 36.804688 "/>
</g>
</svg>
