<?xml version="1.0" encoding="UTF-8"?>
<svg xmlns="http://www.w3.org/2000/svg" xmlns:xlink="http://www.w3.org/1999/xlink" width="70px" height="70px" viewBox="0 0 70 70" version="1.1">
<g id="surface1">
<path style=" stroke:none;fill-rule:nonzero;fill:rgb(14.117647%,16.078431%,21.960784%);fill-opacity:1;" d="M 16.40625 0 L 53.59375 0 C 62.65625 0 70 7.34375 70 16.40625 L 70 53.59375 C 70 62.65625 62.65625 70 53.59375 70 L 16.40625 70 C 7.34375 70 0 62.65625 0 53.59375 L 0 16.40625 C 0 7.34375 7.34375 0 16.40625 0 Z M 16.40625 0 "/>
<path style=" stroke:none;fill-rule:nonzero;fill:rgb(100%,100%,100%);fill-opacity:1;" d="M 62.34375 50.023438 C 61.546875 50.324219 60.667969 50.324219 59.875 50.019531 C 59.078125 49.71875 58.421875 49.132812 58.027344 48.378906 C 55.546875 44.671875 52.8125 41.128906 50.179688 37.507812 L 49.039062 35.988281 C 45.910156 40.183594 42.777344 44.214844 39.917969 48.394531 C 39.546875 49.117188 38.925781 49.675781 38.167969 49.972656 C 37.414062 50.269531 36.578125 50.28125 35.8125 50.007812 L 47.566406 34.242188 L 36.632812 19.996094 C 37.421875 19.710938 38.28125 19.707031 39.070312 19.984375 C 39.859375 20.261719 40.53125 20.800781 40.96875 21.515625 C 43.507812 25.226562 46.320312 28.765625 49.117188 32.523438 C 51.929688 28.796875 54.710938 25.238281 57.3125 21.5625 C 57.6875 20.851562 58.308594 20.304688 59.058594 20.023438 C 59.808594 19.746094 60.636719 19.75 61.386719 20.039062 L 57.144531 25.664062 C 55.242188 28.175781 53.375 30.699219 51.398438 33.144531 C 51.238281 33.289062 51.109375 33.464844 51.023438 33.660156 C 50.9375 33.851562 50.890625 34.066406 50.890625 34.277344 C 50.890625 34.492188 50.9375 34.703125 51.023438 34.898438 C 51.109375 35.09375 51.238281 35.269531 51.398438 35.410156 C 55.03125 40.230469 58.632812 45.066406 62.34375 50.023438 Z M 62.34375 50.023438 "/>
<path style=" stroke:none;fill-rule:nonzero;fill:rgb(100%,100%,100%);fill-opacity:1;" d="M 7.65625 34.042969 C 7.976562 32.523438 8.171875 30.867188 8.613281 29.316406 C 11.246094 19.964844 21.960938 16.074219 29.335938 21.863281 C 33.65625 25.253906 34.734375 30.058594 34.519531 35.472656 L 10.195312 35.472656 C 9.800781 45.140625 16.777344 50.980469 25.703125 48 C 27.152344 47.480469 28.445312 46.613281 29.472656 45.46875 C 30.5 44.324219 31.226562 42.941406 31.585938 41.445312 C 32.058594 39.925781 32.816406 39.667969 34.261719 40.109375 C 34.023438 41.960938 33.371094 43.734375 32.347656 45.292969 C 31.328125 46.855469 29.964844 48.164062 28.363281 49.125 C 25.71875 50.570312 22.683594 51.144531 19.695312 50.761719 C 16.703125 50.378906 13.910156 49.0625 11.714844 46.996094 C 9.542969 44.554688 8.230469 41.46875 7.976562 38.207031 C 7.976562 37.691406 7.777344 37.175781 7.671875 36.6875 C 7.660156 35.785156 7.65625 34.90625 7.65625 34.042969 Z M 10.226562 33.390625 L 32.226562 33.390625 C 32.089844 26.378906 27.664062 21.410156 21.765625 21.363281 C 15.195312 21.273438 10.5 26.136719 10.210938 33.359375 Z M 10.226562 33.390625 "/>
</g>
</svg>
