<svg width="70" height="70" viewBox="0 0 70 70" fill="none" xmlns="http://www.w3.org/2000/svg">
<g clip-path="url(#clip0)">
<rect width="70" height="70" rx="10" fill="#122639"/>
<g clip-path="url(#clip1)" filter="url(#filter0_d)">
<path d="M26.7517 60.9999C31.5807 60.9999 35.4999 57.1173 35.4999 52.3333V43.6666H26.7517C21.9227 43.6666 18.0035 47.5493 18.0035 52.3333C18.0035 57.1173 21.9227 60.9999 26.7517 60.9999Z" fill="#0ACF83"/>
<path d="M18.0035 35C18.0035 30.216 21.9227 26.3334 26.7517 26.3334H35.4999V43.6667H26.7517C21.9227 43.6667 18.0035 39.784 18.0035 35Z" fill="#A259FF"/>
<path d="M18.0045 17.6667C18.0045 12.8827 21.9237 9 26.7527 9H35.5009V26.3333H26.7527C21.9237 26.3333 18.0045 22.4507 18.0045 17.6667Z" fill="#F24E1E"/>
<path d="M35.5 9H44.2483C49.0773 9 52.9965 12.8827 52.9965 17.6667C52.9965 22.4507 49.0773 26.3333 44.2483 26.3333H35.5V9Z" fill="#FF7262"/>
<path d="M52.9965 35C52.9965 39.784 49.0773 43.6667 44.2483 43.6667C39.4192 43.6667 35.5 39.784 35.5 35C35.5 30.216 39.4192 26.3334 44.2483 26.3334C49.0773 26.3334 52.9965 30.216 52.9965 35Z" fill="#1ABCFE"/>
</g>
</g>
<defs>
<filter id="filter0_d" x="3" y="-2" width="65" height="82" filterUnits="userSpaceOnUse" color-interpolation-filters="sRGB">
<feFlood flood-opacity="0" result="BackgroundImageFix"/>
<feColorMatrix in="SourceAlpha" type="matrix" values="0 0 0 0 0 0 0 0 0 0 0 0 0 0 0 0 0 0 127 0"/>
<feOffset dy="4"/>
<feGaussianBlur stdDeviation="7.5"/>
<feColorMatrix type="matrix" values="0 0 0 0 0 0 0 0 0 0 0 0 0 0 0 0 0 0 0.25 0"/>
<feBlend mode="normal" in2="BackgroundImageFix" result="effect1_dropShadow"/>
<feBlend mode="normal" in="SourceGraphic" in2="effect1_dropShadow" result="shape"/>
</filter>
<clipPath id="clip0">
<rect width="70" height="70" rx="10" fill="white"/>
</clipPath>
<clipPath id="clip1">
<rect width="35" height="52" fill="white" transform="translate(18 9)"/>
</clipPath>
</defs>
</svg>
