<?xml version="1.0" encoding="UTF-8"?>
<svg xmlns="http://www.w3.org/2000/svg" xmlns:xlink="http://www.w3.org/1999/xlink" width="70px" height="70px" viewBox="0 0 70 70" version="1.1">
<g id="surface1">
<path style=" stroke:none;fill-rule:nonzero;fill:rgb(14.117647%,16.078431%,21.960784%);fill-opacity:1;" d="M 16.40625 0 L 53.59375 0 C 62.65625 0 70 7.34375 70 16.40625 L 70 53.59375 C 70 62.65625 62.65625 70 53.59375 70 L 16.40625 70 C 7.34375 70 0 62.65625 0 53.59375 L 0 16.40625 C 0 7.34375 7.34375 0 16.40625 0 Z M 16.40625 0 "/>
<path style=" stroke:none;fill-rule:nonzero;fill:rgb(89.803922%,20.784314%,67.058824%);fill-opacity:1;" d="M 13.085938 48.175781 L 15.09375 49.335938 L 37.460938 10.601562 L 35.453125 9.441406 Z M 13.085938 48.175781 "/>
<path style=" stroke:none;fill-rule:nonzero;fill:rgb(89.803922%,20.784314%,67.058824%);fill-opacity:1;" d="M 57.359375 45.082031 L 12.628906 45.082031 L 12.628906 47.402344 L 57.359375 47.402344 Z M 57.359375 45.082031 "/>
<path style=" stroke:none;fill-rule:nonzero;fill:rgb(89.803922%,20.784314%,67.058824%);fill-opacity:1;" d="M 13.511719 46.386719 L 35.886719 59.304688 L 37.046875 57.296875 L 14.671875 44.378906 Z M 13.511719 46.386719 "/>
<path style=" stroke:none;fill-rule:nonzero;fill:rgb(89.803922%,20.784314%,67.058824%);fill-opacity:1;" d="M 32.949219 12.71875 L 55.320312 25.636719 L 56.480469 23.628906 L 34.109375 10.710938 Z M 32.949219 12.71875 "/>
<path style=" stroke:none;fill-rule:nonzero;fill:rgb(89.803922%,20.784314%,67.058824%);fill-opacity:1;" d="M 13.519531 23.621094 L 14.679688 25.628906 L 37.050781 12.710938 L 35.890625 10.703125 Z M 13.519531 23.621094 "/>
<path style=" stroke:none;fill-rule:nonzero;fill:rgb(89.803922%,20.784314%,67.058824%);fill-opacity:1;" d="M 32.542969 10.601562 L 54.910156 49.335938 L 56.917969 48.179688 L 34.550781 9.441406 Z M 32.542969 10.601562 "/>
<path style=" stroke:none;fill-rule:nonzero;fill:rgb(89.803922%,20.784314%,67.058824%);fill-opacity:1;" d="M 16.71875 22.082031 L 14.402344 22.082031 L 14.402344 47.917969 L 16.71875 47.917969 Z M 16.71875 22.082031 "/>
<path style=" stroke:none;fill-rule:nonzero;fill:rgb(89.803922%,20.784314%,67.058824%);fill-opacity:1;" d="M 55.597656 22.082031 L 53.28125 22.082031 L 53.28125 47.917969 L 55.597656 47.917969 Z M 55.597656 22.082031 "/>
<path style=" stroke:none;fill-rule:nonzero;fill:rgb(89.803922%,20.784314%,67.058824%);fill-opacity:1;" d="M 34.480469 56.566406 L 35.492188 58.320312 L 54.949219 47.085938 L 53.9375 45.332031 Z M 34.480469 56.566406 "/>
<path style=" stroke:none;fill-rule:nonzero;fill:rgb(89.803922%,20.784314%,67.058824%);fill-opacity:1;" d="M 58.671875 48.671875 C 57.328125 51.003906 54.339844 51.800781 52.007812 50.460938 C 49.675781 49.117188 48.882812 46.128906 50.222656 43.796875 C 51.5625 41.464844 54.550781 40.667969 56.882812 42.011719 C 59.230469 43.363281 60.023438 46.339844 58.671875 48.671875 Z M 58.671875 48.671875 "/>
<path style=" stroke:none;fill-rule:nonzero;fill:rgb(89.803922%,20.784314%,67.058824%);fill-opacity:1;" d="M 19.765625 26.203125 C 18.421875 28.535156 15.433594 29.332031 13.101562 27.988281 C 10.769531 26.648438 9.972656 23.660156 11.316406 21.328125 C 12.65625 18.996094 15.644531 18.199219 17.976562 19.539062 C 20.308594 20.894531 21.105469 23.871094 19.765625 26.203125 Z M 19.765625 26.203125 "/>
<path style=" stroke:none;fill-rule:nonzero;fill:rgb(89.803922%,20.784314%,67.058824%);fill-opacity:1;" d="M 11.328125 48.671875 C 9.988281 46.339844 10.785156 43.363281 13.117188 42.011719 C 15.449219 40.667969 18.421875 41.464844 19.777344 43.796875 C 21.117188 46.128906 20.324219 49.105469 17.988281 50.460938 C 15.644531 51.800781 12.667969 51.003906 11.328125 48.671875 Z M 11.328125 48.671875 "/>
<path style=" stroke:none;fill-rule:nonzero;fill:rgb(89.803922%,20.784314%,67.058824%);fill-opacity:1;" d="M 50.234375 26.203125 C 48.894531 23.871094 49.691406 20.894531 52.023438 19.539062 C 54.355469 18.199219 57.328125 18.996094 58.683594 21.328125 C 60.023438 23.660156 59.230469 26.636719 56.898438 27.988281 C 54.566406 29.332031 51.578125 28.535156 50.234375 26.203125 Z M 50.234375 26.203125 "/>
<path style=" stroke:none;fill-rule:nonzero;fill:rgb(89.803922%,20.784314%,67.058824%);fill-opacity:1;" d="M 35 62.34375 C 32.304688 62.34375 30.125 60.164062 30.125 57.46875 C 30.125 54.773438 32.304688 52.597656 35 52.597656 C 37.695312 52.597656 39.875 54.773438 39.875 57.46875 C 39.875 60.152344 37.695312 62.34375 35 62.34375 Z M 35 62.34375 "/>
<path style=" stroke:none;fill-rule:nonzero;fill:rgb(89.803922%,20.784314%,67.058824%);fill-opacity:1;" d="M 35 17.402344 C 32.304688 17.402344 30.125 15.226562 30.125 12.53125 C 30.125 9.835938 32.304688 7.65625 35 7.65625 C 37.695312 7.65625 39.875 9.835938 39.875 12.53125 C 39.875 15.226562 37.695312 17.402344 35 17.402344 Z M 35 17.402344 "/>
</g>
</svg>
