<svg width="70" height="70" viewBox="0 0 70 70" fill="none" xmlns="http://www.w3.org/2000/svg">
<g clip-path="url(#clip0)">
<rect width="70" height="70" rx="10" fill="#501800"/>
<g filter="url(#filter0_d)">
<path d="M17.6822 55.0018L13.7177 10H57.2823L53.3134 54.9947L35.4733 60L17.6822 55.0018Z" fill="#E44D26"/>
<path d="M35.5 56.1741L49.9156 52.1293L53.3075 13.6796H35.5V56.1741Z" fill="#F16529"/>
<path d="M35.5 30.3701H28.2833L27.7848 24.7183H35.5V19.199H21.8242L21.9549 20.6797L23.2953 35.8893H35.5V30.3701ZM35.5 44.7042L35.476 44.7108L29.4021 43.0509L29.0138 38.6492H23.5391L24.3033 47.3153L35.475 50.4538L35.5 50.4467V44.7042Z" fill="#EBEBEB"/>
<path d="M35.4812 30.3701V35.8893H42.1971L41.5639 43.0475L35.4812 44.7088V50.4509L46.6619 47.3153L46.7437 46.3825L48.0255 31.8523L48.1585 30.3701H46.689H35.4812ZM35.4812 19.199V24.7183H48.6549L48.7641 23.4777L49.0126 20.6797L49.1431 19.199H35.4812Z" fill="white"/>
</g>
</g>
<defs>
<filter id="filter0_d" x="-1.28235" y="-1" width="73.5647" height="80" filterUnits="userSpaceOnUse" color-interpolation-filters="sRGB">
<feFlood flood-opacity="0" result="BackgroundImageFix"/>
<feColorMatrix in="SourceAlpha" type="matrix" values="0 0 0 0 0 0 0 0 0 0 0 0 0 0 0 0 0 0 127 0"/>
<feOffset dy="4"/>
<feGaussianBlur stdDeviation="7.5"/>
<feColorMatrix type="matrix" values="0 0 0 0 0 0 0 0 0 0 0 0 0 0 0 0 0 0 0.25 0"/>
<feBlend mode="normal" in2="BackgroundImageFix" result="effect1_dropShadow"/>
<feBlend mode="normal" in="SourceGraphic" in2="effect1_dropShadow" result="shape"/>
</filter>
<clipPath id="clip0">
<rect width="70" height="70" rx="10" fill="white"/>
</clipPath>
</defs>
</svg>
