<svg width="70" height="70" viewBox="0 0 70 70" fill="none" xmlns="http://www.w3.org/2000/svg">
<g clip-path="url(#clip0)">
<rect width="70" height="70" rx="10" fill="#4E3E00"/>
<g filter="url(#filter0_d)">
<path d="M11 10H61V60H11V10Z" fill="#F7DF1E"/>
<path d="M24.1469 51.7836L27.973 49.4679C28.7113 50.7767 29.3828 51.8841 30.9935 51.8841C32.5375 51.8841 33.5111 51.2802 33.5111 48.931V32.9548H38.2098V48.9974C38.2098 53.864 35.357 56.0793 31.1949 56.0793C27.4361 56.0793 25.2543 54.1326 24.1467 51.7832L24.1469 51.7836ZM40.7619 51.28L44.5877 49.065C45.5949 50.7097 46.9039 51.9179 49.2195 51.9179C51.1666 51.9179 52.408 50.9445 52.408 49.6019C52.408 47.991 51.1326 47.4203 48.9846 46.4808L47.8101 45.9769C44.4201 44.5341 42.1715 42.7216 42.1715 38.8955C42.1715 35.3713 44.8564 32.6861 49.0519 32.6861C52.0391 32.6861 54.1871 33.7267 55.7308 36.4453L52.0723 38.7949C51.2666 37.3517 50.3943 36.7812 49.0517 36.7812C47.6756 36.7812 46.8029 37.6539 46.8029 38.7949C46.8029 40.2045 47.6756 40.7754 49.6892 41.648L50.8639 42.1513C54.858 43.8632 57.1066 45.6084 57.1066 49.5349C57.1066 53.7642 53.784 56.0799 49.3201 56.0799C44.957 56.0799 42.1377 53.999 40.7617 51.2802" fill="black"/>
</g>
</g>
<defs>
<filter id="filter0_d" x="-4" y="-1" width="80" height="80" filterUnits="userSpaceOnUse" color-interpolation-filters="sRGB">
<feFlood flood-opacity="0" result="BackgroundImageFix"/>
<feColorMatrix in="SourceAlpha" type="matrix" values="0 0 0 0 0 0 0 0 0 0 0 0 0 0 0 0 0 0 127 0"/>
<feOffset dy="4"/>
<feGaussianBlur stdDeviation="7.5"/>
<feColorMatrix type="matrix" values="0 0 0 0 0 0 0 0 0 0 0 0 0 0 0 0 0 0 0.25 0"/>
<feBlend mode="normal" in2="BackgroundImageFix" result="effect1_dropShadow"/>
<feBlend mode="normal" in="SourceGraphic" in2="effect1_dropShadow" result="shape"/>
</filter>
<clipPath id="clip0">
<rect width="70" height="70" rx="10" fill="white"/>
</clipPath>
</defs>
</svg>
