<?xml version="1.0" encoding="UTF-8"?>
<svg xmlns="http://www.w3.org/2000/svg" xmlns:xlink="http://www.w3.org/1999/xlink" width="70px" height="70px" viewBox="0 0 70 70" version="1.1">
<g id="surface1">
<path style=" stroke:none;fill-rule:nonzero;fill:rgb(94.117647%,85.882353%,30.980392%);fill-opacity:1;" d="M 16.40625 0 L 53.59375 0 C 62.65625 0 70 7.34375 70 16.40625 L 70 53.59375 C 70 62.65625 62.65625 70 53.59375 70 L 16.40625 70 C 7.34375 70 0 62.65625 0 53.59375 L 0 16.40625 C 0 7.34375 7.34375 0 16.40625 0 Z M 16.40625 0 "/>
<path style=" stroke:none;fill-rule:nonzero;fill:rgb(19.607843%,20%,18.823529%);fill-opacity:1;" d="M 18.40625 58.496094 L 23.761719 55.253906 C 24.796875 57.085938 25.734375 58.636719 27.992188 58.636719 C 30.152344 58.636719 31.515625 57.792969 31.515625 54.503906 L 31.515625 32.136719 L 38.09375 32.136719 L 38.09375 54.597656 C 38.09375 61.410156 34.101562 64.511719 28.273438 64.511719 C 23.011719 64.511719 19.957031 61.785156 18.40625 58.496094 "/>
<path style=" stroke:none;fill-rule:nonzero;fill:rgb(19.607843%,20%,18.823529%);fill-opacity:1;" d="M 41.667969 57.792969 L 47.023438 54.691406 C 48.433594 56.992188 50.265625 58.683594 53.507812 58.683594 C 56.234375 58.683594 57.972656 57.324219 57.972656 55.441406 C 57.972656 53.1875 56.1875 52.386719 53.179688 51.074219 L 51.535156 50.367188 C 46.789062 48.347656 43.640625 45.808594 43.640625 40.453125 C 43.640625 35.519531 47.398438 31.761719 53.273438 31.761719 C 57.453125 31.761719 60.460938 33.21875 62.625 37.023438 L 57.5 40.3125 C 56.375 38.292969 55.152344 37.492188 53.273438 37.492188 C 51.347656 37.492188 50.125 38.714844 50.125 40.3125 C 50.125 42.285156 51.347656 43.085938 54.164062 44.308594 L 55.808594 45.011719 C 61.402344 47.410156 64.550781 49.851562 64.550781 55.347656 C 64.550781 61.269531 59.898438 64.511719 53.648438 64.511719 C 47.539062 64.511719 43.59375 61.597656 41.667969 57.792969 "/>
</g>
</svg>
