<svg width="70" height="70" viewBox="0 0 70 70" fill="none" xmlns="http://www.w3.org/2000/svg">
<g clip-path="url(#clip0)">
<rect width="70" height="70" rx="10" fill="#29373F"/>
<g clip-path="url(#clip1)">
<path d="M12.1667 11.227H59.8334V58.773H12.1667V11.227Z" fill="url(#paint0_radial)"/>
<path d="M12.1666 11.2264H59.8335V58.7723H12.1666V11.2264ZM10 60.9941H62.0001V9.00464H10V60.9941ZM40.4417 30.8891C40.4417 30.6224 40.4417 29.9782 40.3334 28.7339C40.3334 28.5562 40.3767 28.5117 40.5067 28.4451C41.8284 27.8896 44.9701 26.9121 48.4801 26.9121C48.6534 26.9121 48.7401 26.9565 48.7401 27.1343V30.3336C48.7401 30.5113 48.6751 30.5558 48.4801 30.5558C47.1151 30.4891 45.1001 30.6668 44.3417 31.0001V45.0195C44.3417 45.1972 44.2768 45.2861 44.0817 45.2861H40.68C40.5067 45.2861 40.42 45.2194 40.42 45.0195V30.889H40.4417V30.8891ZM24.4084 45.2861C24.1484 45.2861 24.0834 45.1751 24.0834 44.9529V21.0688C24.0834 20.8911 24.1484 20.78 24.3434 20.78H27.7667C27.94 20.78 27.9833 20.8466 27.9833 21.0466V41.6202H36.9099C37.0832 41.6202 37.1483 41.6869 37.1049 41.8869L36.5633 45.0418C36.52 45.2194 36.4117 45.3084 36.2383 45.3084H24.4084V45.2861Z" fill="#7DE0FF"/>
</g>
</g>
<defs>
<radialGradient id="paint0_radial" cx="0" cy="0" r="1" gradientUnits="userSpaceOnUse" gradientTransform="translate(27.8658 21.8821) scale(36.2267 35.9661)">
<stop stop-color="#39464D" stop-opacity="0.98"/>
<stop offset="1" stop-color="#05151F"/>
</radialGradient>
<clipPath id="clip0">
<rect width="70" height="70" rx="10" fill="white"/>
</clipPath>
<clipPath id="clip1">
<rect width="52" height="52" fill="white" transform="translate(10 9)"/>
</clipPath>
</defs>
</svg>
