<?xml version="1.0" encoding="UTF-8"?>
<svg xmlns="http://www.w3.org/2000/svg" xmlns:xlink="http://www.w3.org/1999/xlink" width="70px" height="70px" viewBox="0 0 70 70" version="1.1">
<g id="surface1">
<path style=" stroke:none;fill-rule:nonzero;fill:rgb(14.117647%,16.078431%,21.960784%);fill-opacity:1;" d="M 16.40625 0 L 53.59375 0 C 62.65625 0 70 7.34375 70 16.40625 L 70 53.59375 C 70 62.65625 62.65625 70 53.59375 70 L 16.40625 70 C 7.34375 70 0 62.65625 0 53.59375 L 0 16.40625 C 0 7.34375 7.34375 0 16.40625 0 Z M 16.40625 0 "/>
<path style=" stroke:none;fill-rule:nonzero;fill:rgb(87.843137%,13.72549%,30.588235%);fill-opacity:1;" d="M 40.121094 4.921875 C 39.695312 4.921875 39.300781 5.015625 38.9375 5.140625 C 39.710938 5.671875 40.136719 6.371094 40.347656 7.167969 C 40.363281 7.277344 40.394531 7.355469 40.410156 7.464844 C 40.425781 7.558594 40.441406 7.652344 40.441406 7.746094 C 40.5 9.117188 40.089844 9.289062 39.800781 10.101562 C 39.359375 11.144531 39.484375 12.269531 40.015625 13.171875 C 40.058594 13.28125 40.121094 13.40625 40.195312 13.515625 C 39.621094 9.570312 42.828125 8.976562 43.417969 7.746094 C 43.464844 6.667969 42.597656 5.953125 41.914062 5.453125 C 41.261719 5.046875 40.667969 4.921875 40.121094 4.921875 Z M 44.953125 5.8125 C 44.894531 6.167969 44.9375 6.074219 44.925781 6.261719 C 44.910156 6.386719 44.910156 6.542969 44.894531 6.667969 C 44.863281 6.792969 44.832031 6.917969 44.785156 7.042969 C 44.757812 7.167969 44.710938 7.292969 44.664062 7.417969 C 44.605469 7.542969 44.558594 7.652344 44.5 7.777344 C 44.453125 7.839844 44.421875 7.902344 44.375 7.964844 C 44.347656 8.011719 44.316406 8.058594 44.285156 8.105469 C 44.210938 8.210938 44.132812 8.320312 44.058594 8.414062 C 43.964844 8.507812 43.890625 8.617188 43.785156 8.695312 C 43.785156 8.710938 43.785156 8.710938 43.785156 8.710938 C 43.691406 8.789062 43.601562 8.882812 43.496094 8.960938 C 43.175781 9.210938 42.8125 9.398438 42.476562 9.632812 C 42.371094 9.710938 42.265625 9.773438 42.171875 9.867188 C 42.066406 9.945312 41.976562 10.023438 41.882812 10.117188 C 41.777344 10.210938 41.703125 10.300781 41.609375 10.410156 C 41.535156 10.503906 41.441406 10.613281 41.382812 10.722656 C 41.304688 10.832031 41.230469 10.941406 41.167969 11.050781 C 41.109375 11.175781 41.0625 11.285156 41.003906 11.410156 C 40.957031 11.535156 40.910156 11.644531 40.882812 11.769531 C 40.835938 11.910156 40.804688 12.035156 40.773438 12.160156 C 40.757812 12.222656 40.757812 12.300781 40.742188 12.363281 C 40.730469 12.425781 40.730469 12.484375 40.714844 12.546875 C 40.714844 12.671875 40.699219 12.8125 40.699219 12.9375 C 40.699219 13.03125 40.699219 13.125 40.714844 13.21875 C 40.714844 13.34375 40.730469 13.46875 40.757812 13.609375 C 40.773438 13.734375 40.804688 13.859375 40.835938 13.984375 C 40.882812 14.109375 40.910156 14.234375 40.957031 14.359375 C 40.988281 14.4375 41.03125 14.515625 41.0625 14.578125 L 37.566406 13.1875 C 36.976562 13.015625 36.398438 12.859375 35.804688 12.71875 C 35.484375 12.640625 35.167969 12.5625 34.847656 12.484375 C 33.933594 12.300781 33.007812 12.160156 32.082031 12.066406 C 32.050781 12.066406 32.035156 12.050781 32.003906 12.050781 C 31.09375 11.957031 30.195312 11.910156 29.285156 11.910156 C 28.617188 11.910156 27.945312 11.941406 27.292969 11.988281 C 26.367188 12.050781 25.4375 12.175781 24.511719 12.332031 C 24.285156 12.363281 24.054688 12.410156 23.828125 12.453125 C 23.355469 12.546875 22.902344 12.65625 22.460938 12.765625 C 22.234375 12.828125 22.003906 12.890625 21.777344 12.953125 C 21.546875 13.046875 21.335938 13.15625 21.125 13.25 C 20.957031 13.328125 20.789062 13.40625 20.621094 13.484375 C 20.589844 13.5 20.5625 13.5 20.546875 13.515625 C 20.394531 13.59375 20.257812 13.65625 20.121094 13.734375 C 20.074219 13.75 20.042969 13.765625 20.011719 13.78125 C 19.847656 13.859375 19.679688 13.953125 19.542969 14.03125 C 19.4375 14.078125 19.328125 14.140625 19.238281 14.1875 C 19.191406 14.21875 19.132812 14.25 19.101562 14.265625 C 18.964844 14.34375 18.828125 14.421875 18.707031 14.5 C 18.570312 14.574219 18.449219 14.652344 18.339844 14.730469 C 18.234375 14.808594 18.128906 14.871094 18.039062 14.949219 C 18.023438 14.964844 18.007812 14.964844 17.992188 14.980469 C 17.902344 15.042969 17.792969 15.121094 17.703125 15.199219 C 17.703125 15.199219 17.6875 15.214844 17.671875 15.230469 C 17.597656 15.292969 17.519531 15.355469 17.445312 15.417969 C 17.414062 15.433594 17.382812 15.464844 17.355469 15.480469 C 17.277344 15.542969 17.203125 15.621094 17.125 15.683594 C 17.109375 15.714844 17.082031 15.730469 17.066406 15.746094 C 16.972656 15.839844 16.882812 15.917969 16.792969 16.011719 C 16.777344 16.011719 16.777344 16.027344 16.761719 16.042969 C 16.671875 16.121094 16.578125 16.214844 16.488281 16.308594 C 16.472656 16.324219 16.472656 16.339844 16.457031 16.339844 C 16.382812 16.417969 16.304688 16.496094 16.230469 16.589844 C 16.199219 16.621094 16.152344 16.652344 16.121094 16.679688 C 16.046875 16.773438 15.957031 16.867188 15.863281 16.960938 C 15.847656 16.992188 15.820312 17.007812 15.804688 17.039062 C 15.683594 17.164062 15.574219 17.289062 15.453125 17.414062 C 15.4375 17.429688 15.421875 17.445312 15.410156 17.460938 C 15.164062 17.726562 14.90625 17.992188 14.632812 18.226562 C 14.359375 18.476562 14.070312 18.710938 13.78125 18.910156 C 13.476562 19.128906 13.191406 19.316406 12.871094 19.503906 C 12.566406 19.675781 12.246094 19.832031 11.914062 19.972656 C 11.59375 20.113281 11.257812 20.238281 10.925781 20.347656 C 10.285156 20.488281 9.632812 20.753906 9.070312 20.800781 C 8.949219 20.800781 8.8125 20.832031 8.691406 20.847656 C 8.554688 20.878906 8.433594 20.910156 8.3125 20.941406 C 8.1875 20.984375 8.066406 21.03125 7.945312 21.078125 C 7.824219 21.125 7.703125 21.1875 7.582031 21.25 C 7.476562 21.328125 7.351562 21.390625 7.246094 21.46875 C 7.140625 21.546875 7.035156 21.640625 6.941406 21.734375 C 6.835938 21.8125 6.730469 21.921875 6.640625 22.015625 C 6.546875 22.125 6.457031 22.21875 6.378906 22.328125 C 6.304688 22.453125 6.214844 22.5625 6.152344 22.6875 C 6.078125 22.796875 6 22.921875 5.941406 23.046875 C 5.878906 23.183594 5.816406 23.308594 5.773438 23.449219 C 5.726562 23.574219 5.679688 23.714844 5.636719 23.855469 C 5.605469 23.980469 5.574219 24.105469 5.558594 24.230469 C 5.558594 24.246094 5.542969 24.261719 5.542969 24.277344 C 5.515625 24.417969 5.515625 24.605469 5.5 24.699219 C 5.484375 24.808594 5.46875 24.902344 5.46875 25.011719 C 5.46875 25.074219 5.46875 25.152344 5.484375 25.214844 C 5.5 25.320312 5.515625 25.414062 5.542969 25.507812 C 5.574219 25.601562 5.605469 25.695312 5.652344 25.789062 C 5.652344 25.804688 5.652344 25.804688 5.652344 25.804688 C 5.695312 25.898438 5.757812 25.992188 5.820312 26.085938 C 5.878906 26.179688 5.941406 26.273438 6.015625 26.367188 C 6.09375 26.445312 6.183594 26.539062 6.273438 26.617188 C 6.367188 26.710938 6.457031 26.789062 6.5625 26.867188 C 6.929688 27.195312 7.019531 27.304688 7.488281 27.550781 C 7.566406 27.597656 7.640625 27.628906 7.734375 27.675781 C 7.75 27.675781 7.765625 27.691406 7.777344 27.691406 C 7.777344 27.722656 7.777344 27.738281 7.792969 27.769531 C 7.808594 27.894531 7.839844 28.019531 7.871094 28.144531 C 7.902344 28.285156 7.945312 28.410156 7.992188 28.519531 C 8.039062 28.613281 8.066406 28.707031 8.113281 28.800781 C 8.128906 28.832031 8.144531 28.863281 8.160156 28.878906 C 8.21875 29.003906 8.28125 29.113281 8.339844 29.222656 C 8.417969 29.332031 8.492188 29.441406 8.570312 29.550781 C 8.644531 29.640625 8.738281 29.75 8.828125 29.84375 C 8.917969 29.9375 9.011719 30.015625 9.117188 30.109375 C 9.117188 30.109375 9.132812 30.125 9.148438 30.125 C 9.238281 30.203125 9.328125 30.28125 9.421875 30.34375 C 9.527344 30.421875 9.632812 30.484375 9.753906 30.546875 C 9.859375 30.609375 9.984375 30.671875 10.105469 30.71875 C 10.195312 30.765625 10.300781 30.796875 10.410156 30.828125 C 10.421875 30.84375 10.4375 30.84375 10.46875 30.859375 C 10.53125 30.875 10.605469 30.890625 10.667969 30.90625 C 10.621094 31.746094 10.605469 32.542969 10.726562 32.824219 C 10.863281 33.136719 11.53125 32.183594 12.203125 31.09375 C 12.109375 32.167969 12.050781 33.433594 12.203125 33.808594 C 12.367188 34.195312 13.28125 32.980469 14.070312 31.640625 C 24.847656 29.082031 34.679688 36.722656 35.714844 47.515625 C 35.515625 45.832031 33.496094 44.894531 32.566406 45.128906 C 32.113281 46.285156 31.335938 47.765625 30.089844 48.6875 C 30.195312 47.65625 30.152344 46.597656 29.9375 45.566406 C 29.605469 47 28.949219 48.34375 28.054688 49.496094 C 26.609375 49.605469 25.164062 48.890625 24.40625 47.8125 C 24.34375 47.765625 24.332031 47.671875 24.285156 47.609375 C 24.238281 47.5 24.191406 47.390625 24.164062 47.28125 C 24.117188 47.171875 24.085938 47.0625 24.070312 46.953125 C 24.054688 46.84375 24.054688 46.738281 24.054688 46.613281 C 24.054688 46.535156 24.054688 46.457031 24.054688 46.378906 C 24.070312 46.269531 24.101562 46.160156 24.132812 46.050781 C 24.164062 45.941406 24.191406 45.832031 24.238281 45.722656 C 24.300781 45.613281 24.34375 45.503906 24.421875 45.394531 C 24.679688 44.644531 24.679688 44.039062 24.207031 43.679688 C 24.117188 43.617188 24.027344 43.570312 23.917969 43.523438 C 23.859375 43.507812 23.78125 43.476562 23.722656 43.460938 C 23.675781 43.445312 23.644531 43.429688 23.601562 43.414062 C 23.492188 43.382812 23.386719 43.351562 23.28125 43.335938 C 23.175781 43.304688 23.070312 43.289062 22.960938 43.289062 C 22.855469 43.273438 22.734375 43.257812 22.628906 43.257812 C 22.550781 43.257812 22.476562 43.273438 22.398438 43.273438 C 22.277344 43.273438 22.171875 43.289062 22.066406 43.320312 C 21.960938 43.335938 21.851562 43.351562 21.746094 43.382812 C 21.640625 43.414062 21.535156 43.445312 21.425781 43.492188 C 21.320312 43.539062 21.230469 43.585938 21.125 43.632812 C 21.03125 43.679688 20.941406 43.742188 20.835938 43.789062 C 17.292969 46.160156 19.40625 51.710938 21.824219 53.316406 C 20.910156 53.488281 19.984375 53.691406 19.726562 53.894531 C 19.710938 53.910156 19.695312 53.925781 19.695312 53.925781 C 20.347656 54.332031 21.03125 54.675781 21.746094 54.972656 C 22.71875 55.300781 23.753906 55.59375 24.207031 55.71875 L 24.207031 55.734375 C 25.46875 56 26.746094 56.09375 28.039062 56.015625 C 34.769531 55.53125 40.289062 50.277344 41.292969 43.351562 C 41.320312 43.492188 41.351562 43.617188 41.382812 43.757812 C 41.429688 44.039062 41.488281 44.335938 41.519531 44.628906 C 41.519531 44.628906 41.519531 44.628906 41.519531 44.648438 C 41.550781 44.785156 41.566406 44.925781 41.582031 45.050781 C 41.582031 45.082031 41.582031 45.097656 41.582031 45.113281 C 41.59375 45.253906 41.609375 45.394531 41.609375 45.519531 C 41.625 45.691406 41.640625 45.863281 41.640625 46.035156 C 41.640625 46.113281 41.640625 46.191406 41.640625 46.285156 C 41.640625 46.363281 41.65625 46.457031 41.65625 46.535156 C 41.65625 46.628906 41.640625 46.722656 41.640625 46.8125 C 41.640625 46.890625 41.640625 46.96875 41.640625 47.03125 C 41.640625 47.140625 41.625 47.234375 41.625 47.34375 C 41.625 47.40625 41.625 47.46875 41.609375 47.546875 C 41.609375 47.65625 41.59375 47.765625 41.59375 47.890625 C 41.578125 47.9375 41.578125 47.984375 41.578125 48.03125 C 41.566406 48.15625 41.550781 48.265625 41.535156 48.390625 C 41.535156 48.4375 41.535156 48.484375 41.519531 48.53125 C 41.503906 48.6875 41.472656 48.828125 41.457031 48.984375 L 41.457031 49.015625 C 41.429688 49.152344 41.398438 49.308594 41.367188 49.449219 C 41.367188 49.464844 41.367188 49.480469 41.367188 49.496094 C 41.335938 49.636719 41.304688 49.777344 41.277344 49.917969 C 41.277344 49.933594 41.261719 49.964844 41.261719 49.980469 C 41.230469 50.121094 41.199219 50.261719 41.15625 50.402344 C 41.15625 50.417969 41.15625 50.433594 41.15625 50.449219 C 41.109375 50.605469 41.0625 50.746094 41.03125 50.886719 C 41.019531 50.902344 41.019531 50.917969 41.019531 50.917969 C 40.972656 51.074219 40.925781 51.226562 40.878906 51.382812 C 40.820312 51.539062 40.773438 51.679688 40.714844 51.835938 C 40.652344 51.992188 40.605469 52.148438 40.546875 52.289062 C 40.484375 52.445312 40.425781 52.585938 40.363281 52.742188 L 40.347656 52.742188 C 40.289062 52.882812 40.226562 53.039062 40.152344 53.179688 C 40.136719 53.226562 40.121094 53.257812 40.105469 53.289062 C 40.089844 53.304688 40.089844 53.320312 40.074219 53.335938 C 39.085938 55.378906 37.628906 57.171875 35.804688 58.574219 C 35.683594 58.652344 35.5625 58.746094 35.441406 58.839844 C 35.410156 58.871094 35.363281 58.886719 35.332031 58.917969 C 35.226562 58.996094 35.121094 59.074219 35 59.152344 L 35.042969 59.246094 L 35.058594 59.246094 C 35.273438 59.214844 35.484375 59.183594 35.699219 59.152344 L 35.714844 59.152344 C 36.109375 59.089844 36.503906 59.011719 36.898438 58.933594 C 37.003906 58.917969 37.125 58.886719 37.234375 58.855469 C 37.308594 58.839844 37.371094 58.824219 37.445312 58.808594 C 37.550781 58.792969 37.660156 58.761719 37.765625 58.746094 C 37.855469 58.714844 37.949219 58.699219 38.039062 58.667969 C 39.558594 58.292969 41.03125 57.777344 42.445312 57.171875 C 40.03125 60.554688 36.792969 63.285156 33.007812 65.078125 C 34.757812 64.953125 36.503906 64.65625 38.191406 64.15625 C 44.316406 62.300781 49.46875 58.074219 52.554688 52.382812 C 51.929688 55.984375 50.53125 59.417969 48.464844 62.410156 C 49.9375 61.414062 51.292969 60.257812 52.523438 58.949219 C 55.925781 55.300781 58.160156 50.667969 58.921875 45.691406 C 59.4375 48.15625 59.589844 50.699219 59.363281 53.210938 C 70.335938 37.503906 60.273438 21.21875 56.0625 16.929688 C 56.050781 16.898438 56.035156 16.882812 56.035156 16.851562 C 56.019531 16.867188 56.019531 16.867188 56.019531 16.882812 C 56.019531 16.867188 56.019531 16.867188 56.003906 16.851562 C 56.003906 17.039062 55.988281 17.226562 55.972656 17.414062 C 55.925781 17.773438 55.882812 18.117188 55.820312 18.460938 C 55.746094 18.804688 55.652344 19.144531 55.5625 19.488281 C 55.457031 19.816406 55.335938 20.160156 55.199219 20.488281 C 55.0625 20.800781 54.910156 21.125 54.742188 21.4375 C 54.574219 21.734375 54.390625 22.046875 54.195312 22.328125 C 53.996094 22.625 53.785156 22.90625 53.570312 23.171875 C 53.34375 23.449219 53.101562 23.699219 52.855469 23.949219 C 52.707031 24.089844 52.570312 24.214844 52.417969 24.339844 C 52.296875 24.449219 52.1875 24.542969 52.066406 24.652344 C 51.792969 24.871094 51.519531 25.074219 51.214844 25.261719 C 50.925781 25.445312 50.625 25.632812 50.320312 25.789062 C 50 25.945312 49.679688 26.085938 49.363281 26.226562 C 49.042969 26.351562 48.707031 26.460938 48.375 26.554688 C 48.039062 26.648438 47.691406 26.726562 47.355469 26.789062 C 47.003906 26.851562 46.65625 26.882812 46.320312 26.914062 C 46.078125 26.929688 45.835938 26.945312 45.59375 26.945312 C 45.242188 26.945312 44.894531 26.914062 44.558594 26.882812 C 44.210938 26.851562 43.859375 26.804688 43.527344 26.726562 C 43.175781 26.664062 42.839844 26.570312 42.507812 26.460938 L 42.492188 26.460938 C 42.828125 26.429688 43.160156 26.398438 43.496094 26.335938 C 43.84375 26.273438 44.179688 26.195312 44.511719 26.101562 C 44.847656 26.007812 45.183594 25.898438 45.5 25.773438 C 45.835938 25.648438 46.15625 25.492188 46.457031 25.339844 C 46.777344 25.183594 47.066406 25.011719 47.371094 24.824219 C 47.660156 24.621094 47.949219 24.417969 48.222656 24.199219 C 48.496094 23.980469 48.753906 23.746094 48.996094 23.496094 C 49.253906 23.261719 49.484375 23 49.710938 22.734375 C 49.9375 22.453125 50.152344 22.171875 50.347656 21.890625 C 50.378906 21.84375 50.410156 21.78125 50.441406 21.734375 C 50.59375 21.484375 50.746094 21.234375 50.882812 20.988281 C 51.046875 20.675781 51.199219 20.363281 51.335938 20.035156 C 51.472656 19.707031 51.597656 19.378906 51.703125 19.035156 C 51.808594 18.710938 51.882812 18.367188 51.960938 18.023438 C 52.023438 17.664062 52.082031 17.320312 52.113281 16.976562 C 52.144531 16.621094 52.171875 16.261719 52.171875 15.917969 C 52.171875 15.667969 52.15625 15.417969 52.144531 15.167969 C 52.113281 14.808594 52.066406 14.46875 52.023438 14.125 C 51.960938 13.765625 51.882812 13.421875 51.792969 13.078125 C 51.6875 12.75 51.582031 12.410156 51.460938 12.082031 C 51.335938 11.753906 51.1875 11.425781 51.035156 11.113281 C 50.867188 10.800781 50.699219 10.488281 50.515625 10.195312 C 50.320312 9.898438 50.121094 9.617188 49.910156 9.335938 C 49.679688 9.070312 49.453125 8.804688 49.210938 8.539062 C 49.089844 8.414062 48.953125 8.273438 48.816406 8.152344 C 48.128906 7.605469 47.417969 7.089844 46.703125 6.621094 C 46.59375 6.558594 46.503906 6.511719 46.398438 6.464844 C 45.898438 6.136719 45.425781 5.96875 44.953125 5.8125 Z M 44.953125 5.8125 "/>
</g>
</svg>
