<?xml version="1.0" encoding="UTF-8"?>
<svg xmlns="http://www.w3.org/2000/svg" xmlns:xlink="http://www.w3.org/1999/xlink" width="70px" height="70px" viewBox="0 0 70 70" version="1.1">
<g id="surface1">
<path style=" stroke:none;fill-rule:nonzero;fill:rgb(95.686275%,94.901961%,92.941176%);fill-opacity:1;" d="M 16.40625 0 L 53.59375 0 C 62.65625 0 70 7.34375 70 16.40625 L 70 53.59375 C 70 62.65625 62.65625 70 53.59375 70 L 16.40625 70 C 7.34375 70 0 62.65625 0 53.59375 L 0 16.40625 C 0 7.34375 7.34375 0 16.40625 0 Z M 16.40625 0 "/>
<path style=" stroke:none;fill-rule:nonzero;fill:rgb(0%,0%,0%);fill-opacity:1;" d="M 13.441406 27.410156 L 21.210938 27.410156 C 23.488281 27.429688 25.140625 28.085938 26.164062 29.382812 C 27.191406 30.675781 27.527344 32.445312 27.179688 34.6875 C 27.046875 35.710938 26.746094 36.714844 26.28125 37.699219 C 25.835938 38.6875 25.21875 39.574219 24.425781 40.367188 C 23.460938 41.371094 22.425781 42.007812 21.324219 42.28125 C 20.222656 42.550781 19.082031 42.6875 17.90625 42.6875 L 14.425781 42.6875 L 13.324219 48.191406 L 9.296875 48.191406 Z M 16.832031 30.714844 L 15.09375 39.410156 C 15.210938 39.429688 15.324219 39.441406 15.441406 39.441406 C 15.578125 39.441406 15.710938 39.441406 15.847656 39.441406 C 17.703125 39.457031 19.25 39.277344 20.484375 38.890625 C 21.722656 38.484375 22.550781 37.074219 22.976562 34.65625 C 23.324219 32.628906 22.976562 31.460938 21.933594 31.148438 C 20.910156 30.839844 19.625 30.695312 18.078125 30.714844 C 17.847656 30.734375 17.625 30.746094 17.414062 30.746094 C 17.21875 30.746094 17.015625 30.746094 16.804688 30.746094 L 16.832031 30.714844 "/>
<path style=" stroke:none;fill-rule:nonzero;fill:rgb(0%,0%,0%);fill-opacity:1;" d="M 31.769531 21.875 L 35.769531 21.875 L 34.640625 27.410156 L 38.234375 27.410156 C 40.203125 27.449219 41.671875 27.855469 42.640625 28.628906 C 43.625 29.402344 43.914062 30.871094 43.507812 33.035156 L 41.566406 42.6875 L 37.507812 42.6875 L 39.363281 33.46875 C 39.554688 32.503906 39.5 31.816406 39.191406 31.410156 C 38.878906 31.003906 38.214844 30.800781 37.191406 30.800781 L 33.972656 30.773438 L 31.59375 42.6875 L 27.597656 42.6875 Z M 31.769531 21.875 "/>
<path style=" stroke:none;fill-rule:nonzero;fill:rgb(0%,0%,0%);fill-opacity:1;" d="M 47.804688 27.410156 L 55.570312 27.410156 C 57.851562 27.429688 59.503906 28.085938 60.527344 29.382812 C 61.550781 30.675781 61.890625 32.445312 61.542969 34.6875 C 61.40625 35.710938 61.105469 36.714844 60.644531 37.699219 C 60.199219 38.6875 59.582031 39.574219 58.789062 40.367188 C 57.820312 41.371094 56.789062 42.007812 55.6875 42.28125 C 54.585938 42.550781 53.445312 42.6875 52.265625 42.6875 L 48.789062 42.6875 L 47.6875 48.191406 L 43.660156 48.191406 Z M 51.195312 30.714844 L 49.457031 39.410156 C 49.570312 39.429688 49.6875 39.441406 49.804688 39.441406 C 49.9375 39.441406 50.074219 39.441406 50.210938 39.441406 C 52.0625 39.457031 53.609375 39.277344 54.847656 38.890625 C 56.082031 38.484375 56.914062 37.074219 57.339844 34.65625 C 57.6875 32.628906 57.339844 31.460938 56.296875 31.148438 C 55.273438 30.839844 53.988281 30.695312 52.441406 30.714844 C 52.210938 30.734375 51.988281 30.746094 51.773438 30.746094 C 51.582031 30.746094 51.378906 30.746094 51.164062 30.746094 L 51.195312 30.714844 "/>
</g>
</svg>
