<svg width="70" height="70" viewBox="0 0 70 70" fill="none" xmlns="http://www.w3.org/2000/svg">
<g clip-path="url(#clip0)">
<rect width="70" height="70" rx="10" fill="#003842"/>
<g clip-path="url(#clip1)">
<path d="M35.0002 39.2466C37.3674 39.2466 39.2864 37.3276 39.2864 34.9603C39.2864 32.5931 37.3674 30.6741 35.0002 30.6741C32.6329 30.6741 30.7139 32.5931 30.7139 34.9603C30.7139 37.3276 32.6329 39.2466 35.0002 39.2466Z" fill="#00D8FF"/>
<path fill-rule="evenodd" clip-rule="evenodd" d="M35.0003 26.2454C40.7552 26.2454 46.1013 27.0712 50.1323 28.4589C54.989 30.131 57.9752 32.6654 57.9752 34.9603C57.9752 37.3518 54.8105 40.0442 49.595 41.7723C45.6519 43.0786 40.4631 43.7606 35.0003 43.7606C29.3993 43.7606 24.0956 43.1205 20.1081 41.7579C15.0632 40.0336 12.0246 37.3062 12.0246 34.9603C12.0246 32.684 14.8757 30.1692 19.6642 28.4997C23.7102 27.0891 29.1884 26.2454 34.9995 26.2454H35.0003Z" stroke="#00D8FF" stroke-width="2.73408"/>
<path fill-rule="evenodd" clip-rule="evenodd" d="M27.4137 30.628C30.2888 25.6428 33.6747 21.4241 36.8907 18.6254C40.7654 15.2534 44.4527 13.9329 46.4407 15.0792C48.5124 16.2739 49.2638 20.3606 48.1552 25.7418C47.3179 29.8103 45.3157 34.6457 42.5866 39.378C39.7884 44.23 36.5844 48.5047 33.4123 51.2774C29.3983 54.7863 25.5176 56.0561 23.4854 54.8841C21.5135 53.7477 20.7594 50.0208 21.7054 45.0386C22.5047 40.8289 24.5105 35.662 27.4128 30.6279L27.4137 30.628Z" stroke="#00D8FF" stroke-width="2.73408"/>
<path fill-rule="evenodd" clip-rule="evenodd" d="M27.4209 39.3907C24.5377 34.4111 22.5747 29.3697 21.7553 25.1859C20.769 20.1449 21.4664 16.2907 23.4525 15.1411C25.5222 13.9428 29.438 15.3328 33.5464 18.9807C36.6527 21.7387 39.8423 25.8874 42.5794 30.6154C45.3856 35.4626 47.4888 40.3735 48.3069 44.5064C49.3422 49.7364 48.5043 53.7325 46.474 54.9078C44.504 56.0483 40.899 54.8408 37.0551 51.5329C33.8073 48.7382 30.3325 44.4198 27.4209 39.3906V39.3907Z" stroke="#00D8FF" stroke-width="2.73408"/>
</g>
</g>
<defs>
<clipPath id="clip0">
<rect width="70" height="70" rx="10" fill="white"/>
</clipPath>
<clipPath id="clip1">
<rect width="48" height="48" fill="white" transform="translate(11 11)"/>
</clipPath>
</defs>
</svg>
