<svg width="70" height="70" viewBox="0 0 70 70" fill="none" xmlns="http://www.w3.org/2000/svg">
<g clip-path="url(#clip0)">
<rect width="70" height="70" rx="10" fill="#624300"/>
<g filter="url(#filter0_d)">
<path fill-rule="evenodd" clip-rule="evenodd" d="M19.5659 27.8878L34.9458 57.9458L9.09488 27.8878H19.5659Z" fill="#EA6C00"/>
<path fill-rule="evenodd" clip-rule="evenodd" d="M50.3302 27.8878L34.9502 57.9458L60.8011 27.8878H50.3302Z" fill="#EA6C00"/>
<path fill-rule="evenodd" clip-rule="evenodd" d="M19.5653 27.8878H50.3252L34.9453 57.9458L19.5653 27.8878Z" fill="#FDAD00"/>
<path fill-rule="evenodd" clip-rule="evenodd" d="M34.9453 11.2296L20.3748 12.7674L19.5653 27.8878L34.9453 11.2296Z" fill="#FDD231"/>
<path fill-rule="evenodd" clip-rule="evenodd" d="M34.9452 11.2296L49.5157 12.7674L50.3252 27.8878L34.9452 11.2296Z" fill="#FDD231"/>
<path fill-rule="evenodd" clip-rule="evenodd" d="M60.8011 27.8877L49.5207 12.7674L50.3302 27.8877H60.8011Z" fill="#FDAD00"/>
<path fill-rule="evenodd" clip-rule="evenodd" d="M9.09488 27.8877L20.3754 12.7674L19.5659 27.8877H9.09488Z" fill="#FDAD00"/>
<path fill-rule="evenodd" clip-rule="evenodd" d="M34.9453 11.2296L19.5653 27.8878H50.3252L34.9453 11.2296Z" fill="#FEEEB7"/>
</g>
</g>
<defs>
<filter id="filter0_d" x="-6" y="0" width="82" height="77" filterUnits="userSpaceOnUse" color-interpolation-filters="sRGB">
<feFlood flood-opacity="0" result="BackgroundImageFix"/>
<feColorMatrix in="SourceAlpha" type="matrix" values="0 0 0 0 0 0 0 0 0 0 0 0 0 0 0 0 0 0 127 0"/>
<feOffset dy="4"/>
<feGaussianBlur stdDeviation="7.5"/>
<feColorMatrix type="matrix" values="0 0 0 0 0 0 0 0 0 0 0 0 0 0 0 0 0 0 0.25 0"/>
<feBlend mode="normal" in2="BackgroundImageFix" result="effect1_dropShadow"/>
<feBlend mode="normal" in="SourceGraphic" in2="effect1_dropShadow" result="shape"/>
</filter>
<clipPath id="clip0">
<rect width="70" height="70" rx="10" fill="white"/>
</clipPath>
</defs>
</svg>
