<?xml version="1.0" encoding="UTF-8"?>
<svg xmlns="http://www.w3.org/2000/svg" xmlns:xlink="http://www.w3.org/1999/xlink" width="70px" height="70px" viewBox="0 0 70 70" version="1.1">
<g id="surface1">
<path style=" stroke:none;fill-rule:nonzero;fill:rgb(10.196078%,9.019608%,10.588235%);fill-opacity:1;"
      d="M 16.40625 0 L 53.59375 0 C 62.65625 0 70 7.34375 70 16.40625 L 70 53.59375 C 70 62.65625 62.65625 70 53.59375 70 L 16.40625 70 C 7.34375 70 0 62.65625 0 53.59375 L 0 16.40625 C 0 7.34375 7.34375 0 16.40625 0 Z M 16.40625 0 "/>
<path style=" stroke:none;fill-rule:nonzero;fill:rgb(10.196078%,9.019608%,10.588235%);fill-opacity:1;" d="M 35 62.34375 C 50.101562 62.34375 62.34375 50.101562 62.34375 35 C 62.34375 19.898438 50.101562 7.65625 35 7.65625 C 19.898438 7.65625 7.65625 19.898438 7.65625 35 C 7.65625 50.101562 19.898438 62.34375 35 62.34375 Z M 35 62.34375 "/>
<path style=" stroke:none;fill-rule:nonzero;fill:rgb(95.686275%,94.901961%,92.941176%);fill-opacity:1;" d="M 46.953125 17.773438 C 44.175781 17.871094 41.75 19.402344 39.949219 21.519531 C 37.949219 23.839844 36.621094 26.597656 35.660156 29.40625 C 33.949219 28.003906 32.625 26.183594 29.875 25.390625 C 27.75 24.78125 25.519531 25.035156 23.46875 26.5625 C 22.496094 27.289062 21.824219 28.386719 21.507812 29.417969 C 20.683594 32.101562 22.375 34.488281 23.140625 35.34375 L 24.824219 37.144531 C 25.167969 37.5 26.003906 38.417969 25.59375 39.738281 C 25.15625 41.175781 23.421875 42.105469 21.648438 41.554688 C 20.855469 41.316406 19.714844 40.722656 19.972656 39.890625 C 20.078125 39.550781 20.320312 39.296875 20.453125 39.003906 C 20.570312 38.75 20.628906 38.5625 20.664062 38.449219 C 20.988281 37.390625 20.546875 36.011719 19.410156 35.664062 C 18.355469 35.339844 17.269531 35.597656 16.851562 36.957031 C 16.375 38.507812 17.117188 41.316406 21.082031 42.539062 C 25.730469 43.96875 29.664062 41.4375 30.222656 38.136719 C 30.574219 36.066406 29.640625 34.53125 27.929688 32.554688 L 26.535156 31.015625 C 25.691406 30.171875 25.402344 28.734375 26.273438 27.628906 C 27.011719 26.699219 28.0625 26.300781 29.78125 26.769531 C 32.292969 27.449219 33.410156 29.191406 35.277344 30.59375 C 34.507812 33.125 34.003906 35.660156 33.546875 37.9375 L 33.269531 39.632812 C 31.933594 46.632812 30.914062 50.476562 28.269531 52.683594 C 27.734375 53.0625 26.972656 53.628906 25.824219 53.671875 C 25.222656 53.6875 25.027344 53.273438 25.019531 53.09375 C 25.003906 52.671875 25.359375 52.476562 25.597656 52.285156 C 25.949219 52.09375 26.484375 51.773438 26.449219 50.75 C 26.410156 49.535156 25.40625 48.484375 23.957031 48.535156 C 22.871094 48.570312 21.214844 49.59375 21.277344 51.464844 C 21.339844 53.398438 23.140625 54.847656 25.859375 54.757812 C 27.3125 54.707031 30.554688 54.117188 33.753906 50.316406 C 37.472656 45.960938 38.511719 40.964844 39.296875 37.3125 L 40.167969 32.488281 C 40.65625 32.542969 41.175781 32.582031 41.738281 32.597656 C 46.371094 32.695312 48.691406 30.292969 48.722656 28.546875 C 48.746094 27.492188 48.03125 26.453125 47.027344 26.476562 C 46.3125 26.496094 45.410156 26.972656 45.191406 27.964844 C 44.980469 28.941406 46.667969 29.820312 45.347656 30.671875 C 44.414062 31.277344 42.734375 31.707031 40.371094 31.359375 L 40.800781 28.984375 C 41.679688 24.480469 42.761719 18.9375 46.863281 18.804688 C 47.164062 18.789062 48.257812 18.816406 48.28125 19.542969 C 48.289062 19.785156 48.230469 19.84375 47.949219 20.398438 C 47.660156 20.828125 47.550781 21.195312 47.566406 21.621094 C 47.605469 22.769531 48.480469 23.523438 49.742188 23.480469 C 51.4375 23.425781 51.921875 21.777344 51.894531 20.929688 C 51.828125 18.941406 49.730469 17.683594 46.953125 17.773438 Z M 46.953125 17.773438 "/>
</g>
</svg>
