<?xml version="1.0" encoding="UTF-8"?>
<svg xmlns="http://www.w3.org/2000/svg" xmlns:xlink="http://www.w3.org/1999/xlink" width="70px" height="70px" viewBox="0 0 70 70" version="1.1">
<g id="surface1">
<path style=" stroke:none;fill-rule:nonzero;fill:rgb(0%,47.843137%,80%);fill-opacity:1;" d="M 16.40625 0 L 53.59375 0 C 62.65625 0 70 7.34375 70 16.40625 L 70 53.59375 C 70 62.65625 62.65625 70 53.59375 70 L 16.40625 70 C 7.34375 70 0 62.65625 0 53.59375 L 0 16.40625 C 0 7.34375 7.34375 0 16.40625 0 Z M 16.40625 0 "/>
<path style=" stroke:none;fill-rule:nonzero;fill:rgb(100%,100%,100%);fill-opacity:1;" d="M 15.480469 35.230469 L 15.457031 38.097656 L 24.570312 38.097656 L 24.570312 63.988281 L 31.011719 63.988281 L 31.011719 38.097656 L 40.125 38.097656 L 40.125 35.289062 C 40.125 33.730469 40.089844 32.433594 40.046875 32.398438 C 40.011719 32.355469 34.46875 32.332031 27.746094 32.34375 L 15.511719 32.375 Z M 15.480469 35.230469 "/>
<path style=" stroke:none;fill-rule:nonzero;fill:rgb(100%,100%,100%);fill-opacity:1;" d="M 56.484375 32.296875 C 58.261719 32.738281 59.617188 33.527344 60.859375 34.816406 C 61.503906 35.507812 62.460938 36.761719 62.539062 37.0625 C 62.5625 37.152344 59.515625 39.195312 57.671875 40.339844 C 57.605469 40.382812 57.339844 40.09375 57.039062 39.652344 C 56.136719 38.339844 55.195312 37.773438 53.75 37.671875 C 51.628906 37.527344 50.261719 38.640625 50.273438 40.496094 C 50.273438 41.039062 50.351562 41.363281 50.570312 41.804688 C 51.039062 42.773438 51.90625 43.351562 54.628906 44.527344 C 59.636719 46.683594 61.78125 48.105469 63.117188 50.128906 C 64.605469 52.382812 64.9375 55.984375 63.925781 58.660156 C 62.816406 61.574219 60.0625 63.550781 56.183594 64.207031 C 54.984375 64.417969 52.136719 64.382812 50.851562 64.152344 C 48.039062 63.652344 45.371094 62.261719 43.726562 60.441406 C 43.082031 59.730469 41.828125 57.875 41.90625 57.738281 C 41.9375 57.695312 42.226562 57.519531 42.550781 57.328125 C 42.859375 57.152344 44.039062 56.472656 45.148438 55.828125 L 47.160156 54.660156 L 47.582031 55.285156 C 48.171875 56.183594 49.460938 57.417969 50.238281 57.828125 C 52.472656 59.007812 55.539062 58.839844 57.050781 57.484375 C 57.695312 56.894531 57.960938 56.285156 57.960938 55.382812 C 57.960938 54.574219 57.859375 54.21875 57.4375 53.605469 C 56.894531 52.828125 55.78125 52.171875 52.628906 50.804688 C 49.015625 49.25 47.460938 48.285156 46.039062 46.75 C 45.214844 45.863281 44.4375 44.441406 44.117188 43.25 C 43.851562 42.261719 43.78125 39.785156 43.996094 38.785156 C 44.738281 35.296875 47.371094 32.863281 51.171875 32.140625 C 52.40625 31.90625 55.273438 31.996094 56.484375 32.296875 Z M 56.484375 32.296875 "/>
</g>
</svg>
