<?xml version="1.0" encoding="UTF-8"?>
<svg xmlns="http://www.w3.org/2000/svg" xmlns:xlink="http://www.w3.org/1999/xlink" width="70px" height="70px" viewBox="0 0 70 70" version="1.1">
<g id="surface1">
<path style=" stroke:none;fill-rule:nonzero;fill:rgb(95.686275%,94.901961%,92.941176%);fill-opacity:1;" d="M 16.40625 0 L 53.59375 0 C 62.65625 0 70 7.34375 70 16.40625 L 70 53.59375 C 70 62.65625 62.65625 70 53.59375 70 L 16.40625 70 C 7.34375 70 0 62.65625 0 53.59375 L 0 16.40625 C 0 7.34375 7.34375 0 16.40625 0 Z M 16.40625 0 "/>
<path style=" stroke:none;fill-rule:nonzero;fill:rgb(14.117647%,53.72549%,79.215686%);fill-opacity:1;" d="M 9.21875 27.402344 C 9.21875 27.402344 7.925781 26.46875 9.476562 25.222656 L 13.097656 21.984375 C 13.097656 21.984375 14.132812 20.894531 15.226562 21.84375 L 48.628906 47.132812 L 48.628906 59.257812 C 48.628906 59.257812 48.613281 61.160156 46.167969 60.953125 Z M 9.21875 27.402344 "/>
<path style=" stroke:none;fill-rule:nonzero;fill:rgb(6.27451%,43.921569%,70.196078%);fill-opacity:1;" d="M 17.828125 35.214844 L 9.21875 43.042969 C 9.21875 43.042969 8.335938 43.703125 9.21875 44.878906 L 13.214844 48.511719 C 13.214844 48.511719 14.164062 49.53125 15.566406 48.371094 L 24.695312 41.453125 Z M 17.828125 35.214844 "/>
<path style=" stroke:none;fill-rule:nonzero;fill:rgb(3.137255%,46.666667%,72.54902%);fill-opacity:1;" d="M 32.941406 35.28125 L 48.730469 23.226562 L 48.628906 11.164062 C 48.628906 11.164062 47.953125 8.53125 45.703125 9.902344 L 24.695312 29.023438 Z M 32.941406 35.28125 "/>
<path style=" stroke:none;fill-rule:nonzero;fill:rgb(23.529412%,60%,83.137255%);fill-opacity:1;" d="M 46.167969 60.96875 C 47.085938 61.90625 48.195312 61.597656 48.195312 61.597656 L 60.5 55.535156 C 62.074219 54.460938 61.855469 53.128906 61.855469 53.128906 L 61.855469 16.925781 C 61.855469 15.335938 60.226562 14.785156 60.226562 14.785156 L 49.5625 9.644531 C 47.230469 8.203125 45.703125 9.902344 45.703125 9.902344 C 45.703125 9.902344 47.667969 8.488281 48.628906 11.164062 L 48.628906 59.035156 C 48.628906 59.367188 48.558594 59.6875 48.417969 59.980469 C 48.136719 60.546875 47.527344 61.074219 46.066406 60.855469 Z M 46.167969 60.96875 "/>
</g>
</svg>
