<svg width="70" height="70" viewBox="0 0 70 70" fill="none" xmlns="http://www.w3.org/2000/svg">
<g clip-path="url(#clip0)">
<rect width="70" height="70" rx="10" fill="#046291"/>
<g clip-path="url(#clip1)" filter="url(#filter0_d)">
<path d="M35 8L58.8634 21.5V48.5L35 62L11.1365 48.5V21.5L35 8Z" fill="white"/>
<path d="M54.602 47.5685L35.7875 58.211V49.922L47.51 43.4735L54.602 47.5685ZM55.889 46.403V24.146L49.004 28.1195V42.425L55.889 46.403ZM15.3215 47.5685L34.136 58.211V49.922L22.4135 43.4735L15.3215 47.5685ZM14.0345 46.403V24.146L20.9195 28.1195V42.425L14.0345 46.403ZM14.84 22.706L34.136 11.789V19.8035L21.7745 26.603L21.68 26.657L14.84 22.706ZM55.0835 22.706L35.7875 11.789V19.8035L48.149 26.603L48.2435 26.657L55.0835 22.706Z" fill="#8ED6FB"/>
<path d="M34.136 48.0365L22.571 41.678V29.078L34.136 35.756V48.0365ZM35.7875 48.0365L47.3525 41.678V29.078L35.7875 35.756V48.0365ZM23.354 27.62L34.964 21.2345L46.574 27.62L34.964 34.325L23.354 27.62Z" fill="#1C78C0"/>
</g>
</g>
<defs>
<filter id="filter0_d" x="-7" y="-3" width="84" height="84" filterUnits="userSpaceOnUse" color-interpolation-filters="sRGB">
<feFlood flood-opacity="0" result="BackgroundImageFix"/>
<feColorMatrix in="SourceAlpha" type="matrix" values="0 0 0 0 0 0 0 0 0 0 0 0 0 0 0 0 0 0 127 0"/>
<feOffset dy="4"/>
<feGaussianBlur stdDeviation="7.5"/>
<feColorMatrix type="matrix" values="0 0 0 0 0 0 0 0 0 0 0 0 0 0 0 0 0 0 0.25 0"/>
<feBlend mode="normal" in2="BackgroundImageFix" result="effect1_dropShadow"/>
<feBlend mode="normal" in="SourceGraphic" in2="effect1_dropShadow" result="shape"/>
</filter>
<clipPath id="clip0">
<rect width="70" height="70" rx="10" fill="white"/>
</clipPath>
<clipPath id="clip1">
<rect width="54" height="54" fill="white" transform="translate(8 8)"/>
</clipPath>
</defs>
</svg>
