<?xml version="1.0" encoding="UTF-8"?>
<svg xmlns="http://www.w3.org/2000/svg" xmlns:xlink="http://www.w3.org/1999/xlink" width="70px" height="70px" viewBox="0 0 70 70" version="1.1">
<g id="surface1">
<path style=" stroke:none;fill-rule:nonzero;fill:rgb(27.843137%,0.392157%,21.568627%);fill-opacity:1;" d="M 16.40625 0 L 53.59375 0 C 62.65625 0 70 7.34375 70 16.40625 L 70 53.59375 C 70 62.65625 62.65625 70 53.59375 70 L 16.40625 70 C 7.34375 70 0 62.65625 0 53.59375 L 0 16.40625 C 0 7.34375 7.34375 0 16.40625 0 Z M 16.40625 0 "/>
<path style=" stroke:none;fill-rule:nonzero;fill:rgb(100%,38.039216%,96.470588%);fill-opacity:1;" d="M 36.707031 21.933594 L 28.503906 35.46875 L 37.253906 49.824219 C 37.308594 49.933594 37.335938 50.042969 37.308594 50.152344 C 37.28125 50.261719 37.171875 50.179688 37.007812 50.207031 L 30.746094 50.207031 C 30.308594 50.207031 30.007812 50.179688 29.816406 49.90625 C 29.242188 48.757812 28.640625 47.636719 28.066406 46.488281 C 27.492188 45.367188 26.863281 44.21875 26.207031 43.042969 C 25.550781 41.867188 24.894531 40.691406 24.238281 39.488281 L 24.183594 39.488281 C 23.609375 40.664062 22.980469 41.839844 22.351562 43.015625 C 21.722656 44.191406 21.09375 45.367188 20.492188 46.515625 C 19.863281 47.664062 19.234375 48.839844 18.605469 49.960938 C 18.496094 50.234375 18.277344 50.261719 17.976562 50.261719 L 11.960938 50.261719 C 11.851562 50.261719 11.769531 50.316406 11.769531 50.179688 C 11.742188 50.070312 11.769531 49.960938 11.824219 49.878906 L 20.328125 35.933594 L 12.042969 21.90625 C 11.960938 21.796875 11.933594 21.6875 11.988281 21.632812 C 12.042969 21.550781 12.152344 21.523438 12.261719 21.523438 L 18.46875 21.523438 C 18.605469 21.523438 18.742188 21.550781 18.851562 21.578125 C 18.960938 21.632812 19.042969 21.714844 19.125 21.824219 C 19.644531 23 20.246094 24.175781 20.875 25.351562 C 21.53125 26.527344 22.160156 27.675781 22.84375 28.824219 C 23.5 29.972656 24.101562 31.121094 24.675781 32.296875 L 24.730469 32.296875 C 25.304688 31.09375 25.90625 29.917969 26.507812 28.769531 C 27.109375 27.621094 27.738281 26.472656 28.367188 25.324219 C 28.996094 24.175781 29.597656 23 30.199219 21.878906 C 30.226562 21.769531 30.28125 21.660156 30.363281 21.605469 C 30.472656 21.550781 30.582031 21.523438 30.71875 21.550781 L 36.488281 21.550781 C 36.625 21.523438 36.761719 21.605469 36.789062 21.742188 C 36.816406 21.769531 36.761719 21.878906 36.707031 21.933594 Z M 36.707031 21.933594 "/>
<path style=" stroke:none;fill-rule:nonzero;fill:rgb(100%,38.039216%,96.470588%);fill-opacity:1;" d="M 49.339844 50.78125 C 47.316406 50.808594 45.292969 50.398438 43.460938 49.550781 C 41.738281 48.757812 40.316406 47.445312 39.332031 45.832031 C 38.320312 44.164062 37.828125 42.085938 37.828125 39.597656 C 37.800781 37.574219 38.320312 35.578125 39.332031 33.828125 C 40.371094 32.050781 41.875 30.574219 43.679688 29.589844 C 45.59375 28.523438 47.890625 28.003906 50.597656 28.003906 C 50.734375 28.003906 50.925781 28.003906 51.171875 28.03125 C 51.417969 28.058594 51.691406 28.058594 52.019531 28.085938 L 52.019531 19.445312 C 52.019531 19.253906 52.101562 19.144531 52.292969 19.144531 L 57.84375 19.144531 C 57.980469 19.117188 58.089844 19.226562 58.117188 19.335938 C 58.117188 19.363281 58.117188 19.390625 58.117188 19.390625 L 58.117188 45.421875 C 58.117188 45.914062 58.144531 46.460938 58.171875 47.0625 C 58.226562 47.636719 58.253906 48.183594 58.28125 48.648438 C 58.28125 48.839844 58.199219 49.003906 58.007812 49.085938 C 56.585938 49.6875 55.082031 50.125 53.550781 50.398438 C 52.15625 50.644531 50.761719 50.78125 49.339844 50.78125 Z M 52.019531 45.3125 L 52.019531 33.28125 C 51.773438 33.226562 51.527344 33.171875 51.28125 33.144531 C 50.980469 33.117188 50.679688 33.089844 50.378906 33.089844 C 49.3125 33.089844 48.246094 33.308594 47.289062 33.800781 C 46.359375 34.265625 45.566406 34.949219 44.964844 35.824219 C 44.363281 36.699219 44.0625 37.875 44.0625 39.296875 C 44.035156 40.253906 44.199219 41.210938 44.527344 42.113281 C 44.800781 42.851562 45.210938 43.507812 45.757812 44.054688 C 46.277344 44.546875 46.90625 44.929688 47.617188 45.148438 C 48.355469 45.394531 49.121094 45.503906 49.886719 45.503906 C 50.296875 45.503906 50.679688 45.476562 51.035156 45.449219 C 51.390625 45.476562 51.691406 45.421875 52.019531 45.3125 Z M 52.019531 45.3125 "/>
</g>
</svg>
