<?xml version="1.0" encoding="UTF-8"?>
<svg xmlns="http://www.w3.org/2000/svg" xmlns:xlink="http://www.w3.org/1999/xlink" width="70px" height="70px" viewBox="0 0 70 70" version="1.1">
<g id="surface1">
<path style=" stroke:none;fill-rule:nonzero;fill:rgb(13.72549%,58.823529%,92.941176%);fill-opacity:1;" d="M 16.40625 0 L 53.59375 0 C 62.65625 0 70 7.34375 70 16.40625 L 70 53.59375 C 70 62.65625 62.65625 70 53.59375 70 L 16.40625 70 C 7.34375 70 0 62.65625 0 53.59375 L 0 16.40625 C 0 7.34375 7.34375 0 16.40625 0 Z M 16.40625 0 "/>
<path style=" stroke:none;fill-rule:nonzero;fill:rgb(100%,100%,100%);fill-opacity:1;" d="M 38.605469 33.394531 L 44.269531 33.394531 L 44.269531 28.269531 L 38.605469 28.269531 Z M 31.863281 33.394531 L 37.527344 33.394531 L 37.527344 28.269531 L 31.863281 28.269531 Z M 25.253906 33.394531 L 30.917969 33.394531 L 30.917969 28.269531 L 25.253906 28.269531 Z M 18.644531 33.394531 L 24.175781 33.394531 L 24.175781 28.269531 L 18.644531 28.269531 Z M 11.902344 33.394531 L 17.566406 33.394531 L 17.566406 28.269531 L 11.902344 28.269531 Z M 18.644531 27.1875 L 24.175781 27.1875 L 24.175781 22.0625 L 18.644531 22.0625 Z M 25.253906 27.1875 L 30.917969 27.1875 L 30.917969 22.0625 L 25.253906 22.0625 Z M 31.863281 27.1875 L 37.527344 27.1875 L 37.527344 22.0625 L 31.863281 22.0625 Z M 31.863281 20.984375 L 37.527344 20.984375 L 37.527344 15.859375 L 31.863281 15.859375 Z M 62.34375 31.101562 C 62.34375 31.101562 59.914062 28.808594 54.925781 29.617188 C 54.386719 25.707031 50.203125 23.414062 50.203125 23.414062 C 50.203125 23.414062 46.292969 28.132812 49.125 33.394531 C 48.316406 33.796875 46.96875 34.335938 44.945312 34.335938 L 7.855469 34.335938 C 7.179688 36.898438 7.179688 53.894531 25.792969 53.894531 C 39.144531 53.894531 49.125 47.691406 53.847656 36.359375 C 60.859375 36.898438 62.34375 31.101562 62.34375 31.101562 Z M 62.34375 31.101562 "/>
</g>
</svg>
