<?xml version="1.0" encoding="UTF-8"?>
<svg xmlns="http://www.w3.org/2000/svg" xmlns:xlink="http://www.w3.org/1999/xlink" width="70px" height="70px" viewBox="0 0 70 70" version="1.1">
<g id="surface1">
<path style=" stroke:none;fill-rule:nonzero;fill:rgb(40%,20%,60%);fill-opacity:1;" d="M 16.40625 0 L 53.59375 0 C 62.65625 0 70 7.34375 70 16.40625 L 70 53.59375 C 70 62.65625 62.65625 70 53.59375 70 L 16.40625 70 C 7.34375 70 0 62.65625 0 53.59375 L 0 16.40625 C 0 7.34375 7.34375 0 16.40625 0 Z M 16.40625 0 "/>
<path style=" stroke:none;fill-rule:nonzero;fill:rgb(100%,100%,100%);fill-opacity:1;" d="M 62.34375 35 L 44.941406 35 L 44.941406 39.972656 L 56.875 39.972656 C 55.136719 47.429688 49.667969 53.644531 42.457031 56.128906 L 13.871094 27.542969 C 16.855469 18.84375 25.304688 12.628906 35 12.628906 C 42.457031 12.628906 49.167969 16.355469 53.394531 22.074219 L 57.125 18.84375 C 52.152344 12.128906 44.199219 7.65625 35 7.65625 C 22.074219 7.65625 11.136719 16.855469 8.402344 29.035156 L 41.214844 61.847656 C 53.144531 58.863281 62.34375 47.925781 62.34375 35 Z M 7.65625 35.25 C 7.65625 42.207031 10.390625 48.921875 15.609375 54.140625 C 20.832031 59.359375 27.792969 62.09375 34.503906 62.09375 Z M 7.65625 35.25 "/>
</g>
</svg>
