<?xml version="1.0" encoding="UTF-8"?>
<svg xmlns="http://www.w3.org/2000/svg" xmlns:xlink="http://www.w3.org/1999/xlink" width="70px" height="70px" viewBox="0 0 70 70" version="1.1">
<g id="surface1">
<path style=" stroke:none;fill-rule:nonzero;fill:rgb(88.235294%,30.588235%,11.372549%);fill-opacity:1;" d="M 16.40625 0 L 53.59375 0 C 62.65625 0 70 7.34375 70 16.40625 L 70 53.59375 C 70 62.65625 62.65625 70 53.59375 70 L 16.40625 70 C 7.34375 70 0 62.65625 0 53.59375 L 0 16.40625 C 0 7.34375 7.34375 0 16.40625 0 Z M 16.40625 0 "/>
<path style=" stroke:none;fill-rule:nonzero;fill:rgb(100%,100%,100%);fill-opacity:1;" d="M 13.125 10.390625 L 15.480469 36.804688 L 45.75 36.804688 L 44.734375 48.132812 L 34.988281 50.765625 L 25.261719 48.136719 L 24.609375 40.859375 L 15.84375 40.859375 L 17.097656 54.882812 L 34.988281 59.851562 L 52.898438 54.882812 L 55.300781 28.070312 L 23.46875 28.070312 L 22.667969 19.125 L 56.09375 19.125 L 56.875 10.390625 Z M 13.125 10.390625 "/>
<path style=" stroke:none;fill-rule:nonzero;fill:rgb(92.156863%,92.156863%,92.156863%);fill-opacity:1;" d="M 35 10.390625 L 13.125 10.390625 L 15.480469 36.804688 L 35 36.804688 L 35 28.070312 L 23.46875 28.070312 L 22.667969 19.125 L 35 19.125 Z M 35 10.390625 "/>
<path style=" stroke:none;fill-rule:nonzero;fill:rgb(92.156863%,92.156863%,92.156863%);fill-opacity:1;" d="M 35 50.761719 L 34.988281 50.765625 L 25.261719 48.136719 L 24.609375 40.859375 L 15.84375 40.859375 L 17.097656 54.882812 L 34.988281 59.851562 L 35 59.847656 Z M 35 50.761719 "/>
</g>
</svg>
