<?xml version="1.0" encoding="UTF-8"?>
<svg xmlns="http://www.w3.org/2000/svg" xmlns:xlink="http://www.w3.org/1999/xlink" width="70px" height="70px" viewBox="0 0 70 70" version="1.1">
<defs>
<linearGradient id="linear0" gradientUnits="userSpaceOnUse" x1="30.256" y1="142.541" x2="123.192" y2="142.541" gradientTransform="matrix(0.273438,0,0,0.273438,0,0)">
<stop offset="0.258" style="stop-color:rgb(97.647059%,47.843137%,7.058824%);stop-opacity:1;"/>
<stop offset="0.459" style="stop-color:rgb(69.019608%,48.235294%,34.509804%);stop-opacity:1;"/>
<stop offset="0.724" style="stop-color:rgb(34.117647%,48.235294%,68.235294%);stop-opacity:1;"/>
<stop offset="0.91" style="stop-color:rgb(11.764706%,48.627451%,89.803922%);stop-opacity:1;"/>
<stop offset="1" style="stop-color:rgb(3.137255%,48.627451%,98.039216%);stop-opacity:1;"/>
</linearGradient>
<linearGradient id="linear1" gradientUnits="userSpaceOnUse" x1="101.621" y1="99.086" x2="254.926" y2="183.914" gradientTransform="matrix(0.273438,0,0,0.273438,0,0)">
<stop offset="0" style="stop-color:rgb(97.647059%,47.843137%,7.058824%);stop-opacity:1;"/>
<stop offset="0.072" style="stop-color:rgb(79.607843%,47.843137%,24.313725%);stop-opacity:1;"/>
<stop offset="0.154" style="stop-color:rgb(61.960784%,48.235294%,41.568627%);stop-opacity:1;"/>
<stop offset="0.242" style="stop-color:rgb(45.882353%,48.235294%,56.862745%);stop-opacity:1;"/>
<stop offset="0.334" style="stop-color:rgb(32.54902%,48.235294%,69.411765%);stop-opacity:1;"/>
<stop offset="0.432" style="stop-color:rgb(21.960784%,48.627451%,80%);stop-opacity:1;"/>
<stop offset="0.538" style="stop-color:rgb(13.72549%,48.627451%,87.843137%);stop-opacity:1;"/>
<stop offset="0.655" style="stop-color:rgb(7.843137%,48.627451%,93.72549%);stop-opacity:1;"/>
<stop offset="0.792" style="stop-color:rgb(4.313725%,48.627451%,96.862745%);stop-opacity:1;"/>
<stop offset="1" style="stop-color:rgb(3.137255%,48.627451%,98.039216%);stop-opacity:1;"/>
</linearGradient>
<linearGradient id="linear2" gradientUnits="userSpaceOnUse" x1="208.651" y1="150.615" x2="165.972" y2="23.088" gradientTransform="matrix(0.273438,0,0,0.273438,0,0)">
<stop offset="0" style="stop-color:rgb(99.607843%,19.215686%,36.470588%);stop-opacity:1;"/>
<stop offset="0.078" style="stop-color:rgb(79.607843%,25.490196%,49.411765%);stop-opacity:1;"/>
<stop offset="0.16" style="stop-color:rgb(61.960784%,30.588235%,60.784314%);stop-opacity:1;"/>
<stop offset="0.247" style="stop-color:rgb(45.882353%,35.686275%,70.588235%);stop-opacity:1;"/>
<stop offset="0.339" style="stop-color:rgb(32.54902%,39.607843%,79.215686%);stop-opacity:1;"/>
<stop offset="0.436" style="stop-color:rgb(21.960784%,42.745098%,85.882353%);stop-opacity:1;"/>
<stop offset="0.541" style="stop-color:rgb(13.72549%,45.490196%,91.372549%);stop-opacity:1;"/>
<stop offset="0.658" style="stop-color:rgb(7.843137%,47.058824%,95.294118%);stop-opacity:1;"/>
<stop offset="0.794" style="stop-color:rgb(4.313725%,48.235294%,97.254902%);stop-opacity:1;"/>
<stop offset="1" style="stop-color:rgb(3.137255%,48.627451%,98.039216%);stop-opacity:1;"/>
</linearGradient>
<linearGradient id="linear3" gradientUnits="userSpaceOnUse" x1="58.63" y1="75.066" x2="186.639" y2="286.8" gradientTransform="matrix(0.273438,0,0,0.273438,0,0)">
<stop offset="0" style="stop-color:rgb(99.607843%,19.215686%,36.470588%);stop-opacity:1;"/>
<stop offset="0.04" style="stop-color:rgb(96.470588%,20.392157%,38.431373%);stop-opacity:1;"/>
<stop offset="0.104" style="stop-color:rgb(87.45098%,22.745098%,44.313725%);stop-opacity:1;"/>
<stop offset="0.167" style="stop-color:rgb(76.078431%,26.27451%,51.372549%);stop-opacity:1;"/>
<stop offset="0.291" style="stop-color:rgb(67.843137%,29.019608%,56.862745%);stop-opacity:1;"/>
<stop offset="0.55" style="stop-color:rgb(45.882353%,35.686275%,70.588235%);stop-opacity:1;"/>
<stop offset="0.917" style="stop-color:rgb(11.372549%,46.27451%,92.941176%);stop-opacity:1;"/>
<stop offset="1" style="stop-color:rgb(3.137255%,48.627451%,98.039216%);stop-opacity:1;"/>
</linearGradient>
</defs>
<g id="surface1">
<path style=" stroke:none;fill-rule:nonzero;fill:rgb(14.117647%,16.078431%,21.960784%);fill-opacity:1;" d="M 16.40625 0 L 53.59375 0 C 62.65625 0 70 7.34375 70 16.40625 L 70 53.59375 C 70 62.65625 62.65625 70 53.59375 70 L 16.40625 70 C 7.34375 70 0 62.65625 0 53.59375 L 0 16.40625 C 0 7.34375 7.34375 0 16.40625 0 Z M 16.40625 0 "/>
<path style=" stroke:none;fill-rule:nonzero;fill:url(#linear0);" d="M 21.484375 50.3125 L 8.28125 39.84375 L 14.84375 27.65625 L 33.671875 35 Z M 21.484375 50.3125 "/>
<path style=" stroke:none;fill-rule:nonzero;fill:url(#linear1);" d="M 62.34375 22.265625 L 61.328125 53.90625 L 40.3125 62.34375 L 27.65625 54.21875 L 46.171875 35 L 38.046875 17.265625 L 45.3125 8.515625 Z M 62.34375 22.265625 "/>
<path style=" stroke:none;fill-rule:nonzero;fill:url(#linear2);" d="M 62.34375 22.265625 L 45.703125 41.953125 L 38.046875 17.265625 L 45.3125 8.515625 Z M 62.34375 22.265625 "/>
<path style=" stroke:none;fill-rule:nonzero;fill:url(#linear3);" d="M 33.984375 53.046875 L 12.03125 61.015625 L 15.546875 48.671875 L 20.15625 33.515625 L 7.65625 29.296875 L 15.546875 7.65625 L 32.734375 9.765625 L 49.609375 29.0625 Z M 33.984375 53.046875 "/>
<path style=" stroke:none;fill-rule:nonzero;fill:rgb(0%,0%,0%);fill-opacity:1;" d="M 52.109375 18.203125 L 18.359375 18.203125 L 18.359375 51.953125 L 52.109375 51.953125 Z M 52.109375 18.203125 "/>
<path style=" stroke:none;fill-rule:nonzero;fill:rgb(100%,100%,100%);fill-opacity:1;" d="M 34.140625 45.625 L 21.484375 45.625 L 21.484375 47.734375 L 34.140625 47.734375 Z M 34.140625 45.625 "/>
<path style=" stroke:none;fill-rule:nonzero;fill:rgb(100%,100%,100%);fill-opacity:1;" d="M 30.625 25.15625 L 30.625 22.578125 L 23.59375 22.578125 L 23.59375 25.15625 L 25.625 25.15625 L 25.625 33.984375 L 23.59375 33.984375 L 23.59375 36.5625 L 30.625 36.5625 L 30.625 33.984375 L 28.671875 33.984375 L 28.671875 25.15625 Z M 30.625 25.15625 "/>
<path style=" stroke:none;fill-rule:nonzero;fill:rgb(100%,100%,100%);fill-opacity:1;" d="M 37.34375 36.796875 C 36.25 36.796875 35.3125 36.5625 34.609375 36.171875 C 33.90625 35.78125 33.28125 35.234375 32.8125 34.6875 L 34.765625 32.5 C 35.15625 32.96875 35.546875 33.28125 35.9375 33.515625 C 36.328125 33.75 36.796875 33.90625 37.265625 33.90625 C 37.8125 33.90625 38.28125 33.75 38.671875 33.359375 C 38.984375 32.96875 39.140625 32.421875 39.140625 31.5625 L 39.140625 22.578125 L 42.265625 22.578125 L 42.265625 31.71875 C 42.265625 32.578125 42.1875 33.28125 41.953125 33.90625 C 41.71875 34.53125 41.40625 35 40.9375 35.46875 C 40.546875 35.859375 40 36.25 39.375 36.40625 C 38.75 36.640625 38.125 36.796875 37.34375 36.796875 Z M 37.34375 36.796875 "/>
</g>
</svg>
