<?xml version="1.0" encoding="UTF-8"?>
<svg xmlns="http://www.w3.org/2000/svg" xmlns:xlink="http://www.w3.org/1999/xlink" width="70px" height="70px" viewBox="0 0 70 70" version="1.1">
<g id="surface1">
<path style=" stroke:none;fill-rule:nonzero;fill:rgb(0.784314%,20.392157%,18.823529%);fill-opacity:1;" d="M 16.40625 0 L 53.59375 0 C 62.65625 0 70 7.34375 70 16.40625 L 70 53.59375 C 70 62.65625 62.65625 70 53.59375 70 L 16.40625 70 C 7.34375 70 0 62.65625 0 53.59375 L 0 16.40625 C 0 7.34375 7.34375 0 16.40625 0 Z M 16.40625 0 "/>
<path style=" stroke:none;fill-rule:nonzero;fill:rgb(6.27451%,66.666667%,31.372549%);fill-opacity:1;" d="M 46.804688 29.417969 C 43.925781 16.710938 37.917969 13.324219 36.386719 10.933594 C 35.753906 9.878906 35.195312 8.785156 34.710938 7.65625 C 34.632812 8.785156 34.484375 9.496094 33.523438 10.351562 C 31.597656 12.070312 23.414062 18.738281 22.722656 33.179688 C 22.082031 46.644531 32.621094 54.949219 34.015625 55.804688 C 35.085938 56.332031 36.390625 55.816406 37.023438 55.332031 C 42.105469 51.847656 49.046875 42.550781 46.8125 29.417969 "/>
<path style=" stroke:none;fill-rule:nonzero;fill:rgb(72.156863%,76.862745%,76.078431%);fill-opacity:1;" d="M 35.148438 48.636719 C 34.882812 51.96875 34.695312 53.90625 34.019531 55.808594 C 34.019531 55.808594 34.460938 58.984375 34.773438 62.34375 L 35.871094 62.34375 C 36.132812 59.976562 36.535156 57.628906 37.070312 55.308594 C 35.648438 54.609375 35.203125 51.5625 35.148438 48.636719 Z M 35.148438 48.636719 "/>
<path style=" stroke:none;fill-rule:nonzero;fill:rgb(7.058824%,57.254902%,30.980392%);fill-opacity:1;" d="M 37.070312 55.308594 C 35.628906 54.644531 35.214844 51.535156 35.152344 48.636719 C 35.507812 43.855469 35.609375 39.058594 35.460938 34.269531 C 35.386719 31.753906 35.496094 10.984375 34.84375 7.941406 C 35.289062 8.972656 35.804688 9.972656 36.386719 10.933594 C 37.917969 13.328125 43.925781 16.710938 46.804688 29.417969 C 49.046875 42.527344 42.144531 51.800781 37.070312 55.308594 Z M 37.070312 55.308594 "/>
</g>
</svg>
