<?xml version="1.0" encoding="UTF-8"?>
<svg xmlns="http://www.w3.org/2000/svg" xmlns:xlink="http://www.w3.org/1999/xlink" width="70px" height="70px" viewBox="0 0 70 70" version="1.1">
<defs>
<clipPath id="clip1">
  <path d="M 10.390625 11 L 59.609375 11 L 59.609375 59.609375 L 10.390625 59.609375 Z M 10.390625 11 "/>
</clipPath>
</defs>
<g id="surface1">
<path style=" stroke:none;fill-rule:nonzero;fill:rgb(95.686275%,94.901961%,92.941176%);fill-opacity:1;" d="M 16.40625 0 L 53.59375 0 C 62.65625 0 70 7.34375 70 16.40625 L 70 53.59375 C 70 62.65625 62.65625 70 53.59375 70 L 16.40625 70 C 7.34375 70 0 62.65625 0 53.59375 L 0 16.40625 C 0 7.34375 7.34375 0 16.40625 0 Z M 16.40625 0 "/>
<g clip-path="url(#clip1)" clip-rule="nonzero">
<path style=" stroke:none;fill-rule:evenodd;fill:rgb(0%,40.392157%,54.901961%);fill-opacity:1;" d="M 55.726562 48.730469 C 53.050781 48.65625 50.972656 48.929688 49.234375 49.660156 C 48.730469 49.863281 47.925781 49.863281 47.859375 50.492188 C 48.128906 50.757812 48.160156 51.191406 48.394531 51.558594 C 48.796875 52.222656 49.5 53.121094 50.136719 53.585938 L 52.277344 55.117188 C 53.585938 55.914062 55.058594 56.382812 56.328125 57.179688 C 57.066406 57.644531 57.800781 58.242188 58.539062 58.742188 C 58.914062 59.007812 59.140625 59.441406 59.609375 59.609375 L 59.609375 59.507812 C 59.375 59.210938 59.308594 58.777344 59.074219 58.441406 L 58.070312 57.480469 C 57.097656 56.183594 55.894531 55.050781 54.589844 54.121094 C 53.515625 53.386719 51.175781 52.390625 50.738281 51.160156 L 50.671875 51.085938 C 51.410156 51.011719 52.277344 50.75 52.980469 50.550781 C 54.121094 50.253906 55.15625 50.320312 56.328125 50.019531 L 57.9375 49.554688 L 57.9375 49.253906 C 57.332031 48.65625 56.898438 47.859375 56.261719 47.292969 C 54.554688 45.828125 52.679688 44.398438 50.738281 43.203125 C 49.703125 42.535156 48.363281 42.101562 47.257812 41.539062 C 46.855469 41.339844 46.1875 41.238281 45.953125 40.90625 C 45.347656 40.175781 45.015625 39.210938 44.578125 38.34375 L 41.835938 32.554688 C 41.234375 31.257812 40.863281 29.960938 40.128906 28.765625 C 36.679688 23.109375 32.929688 19.683594 27.171875 16.324219 C 25.933594 15.625 24.460938 15.324219 22.894531 14.957031 L 20.386719 14.824219 C 19.847656 14.589844 19.316406 13.957031 18.847656 13.660156 C 16.9375 12.460938 12.015625 9.867188 10.609375 13.285156 C 9.707031 15.449219 11.949219 17.578125 12.710938 18.675781 C 13.28125 19.441406 14.015625 20.304688 14.417969 21.171875 C 14.644531 21.734375 14.71875 22.335938 14.953125 22.933594 C 15.488281 24.398438 15.992188 26.027344 16.695312 27.390625 C 17.070312 28.089844 17.464844 28.824219 17.933594 29.457031 C 18.199219 29.828125 18.667969 29.988281 18.769531 30.585938 C 18.300781 31.253906 18.269531 32.25 18 33.082031 C 16.792969 36.839844 17.261719 41.5 18.96875 44.265625 C 19.507812 45.097656 20.769531 46.929688 22.484375 46.230469 C 23.992188 45.628906 23.65625 43.734375 24.089844 42.070312 C 24.191406 41.671875 24.125 41.40625 24.324219 41.136719 L 24.324219 41.214844 L 25.699219 43.972656 C 26.734375 45.605469 28.542969 47.300781 30.050781 48.433594 C 30.851562 49.03125 31.488281 50.0625 32.492188 50.429688 L 32.492188 50.328125 L 32.425781 50.328125 C 32.226562 50.03125 31.925781 49.894531 31.65625 49.664062 C 31.054688 49.0625 30.382812 48.332031 29.914062 47.667969 C 28.511719 45.804688 27.273438 43.742188 26.167969 41.613281 C 25.632812 40.582031 25.164062 39.449219 24.726562 38.417969 C 24.527344 38.019531 24.527344 37.421875 24.191406 37.222656 C 23.6875 37.953125 22.953125 38.585938 22.585938 39.484375 C 21.949219 40.914062 21.882812 42.675781 21.648438 44.507812 C 21.511719 44.539062 21.574219 44.507812 21.511719 44.582031 C 20.441406 44.316406 20.074219 43.21875 19.671875 42.285156 C 18.667969 39.925781 18.5 36.132812 19.371094 33.402344 C 19.605469 32.707031 20.609375 30.511719 20.207031 29.84375 C 20.007812 29.210938 19.339844 28.847656 18.96875 28.347656 C 18.535156 27.714844 18.066406 26.917969 17.765625 26.21875 C 16.960938 24.355469 16.5625 22.292969 15.691406 20.429688 C 15.289062 19.566406 14.585938 18.667969 14.015625 17.867188 C 13.378906 16.96875 12.679688 16.339844 12.175781 15.273438 C 12.007812 14.902344 11.773438 14.308594 12.042969 13.910156 C 12.109375 13.644531 12.242188 13.535156 12.507812 13.476562 C 12.945312 13.105469 14.183594 13.578125 14.617188 13.773438 C 15.855469 14.273438 16.894531 14.738281 17.933594 15.4375 C 18.402344 15.769531 18.902344 16.402344 19.507812 16.570312 L 20.210938 16.570312 C 21.28125 16.800781 22.484375 16.644531 23.488281 16.941406 C 25.261719 17.507812 26.867188 18.339844 28.308594 19.238281 C 32.695312 22 36.308594 25.925781 38.753906 30.617188 C 39.15625 31.382812 39.320312 32.082031 39.691406 32.878906 C 40.394531 34.511719 41.265625 36.171875 41.964844 37.769531 C 42.671875 39.335938 43.339844 40.933594 44.34375 42.230469 C 44.847656 42.929688 46.855469 43.292969 47.757812 43.660156 C 48.425781 43.957031 49.464844 44.226562 50.066406 44.589844 C 51.203125 45.289062 52.34375 46.089844 53.414062 46.855469 C 53.949219 47.25 55.625 48.082031 55.722656 48.746094 Z M 21.589844 19.820312 C 21.128906 19.816406 20.667969 19.871094 20.21875 19.988281 L 20.21875 20.0625 L 20.285156 20.0625 C 20.550781 20.59375 21.023438 20.960938 21.355469 21.425781 L 22.125 23.023438 L 22.191406 22.949219 C 22.660156 22.617188 22.894531 22.082031 22.894531 21.285156 C 22.695312 21.054688 22.664062 20.820312 22.496094 20.585938 C 22.292969 20.253906 21.859375 20.085938 21.589844 19.820312 Z M 21.589844 19.820312 "/>
</g>
</g>
</svg>
