<?xml version="1.0" encoding="UTF-8"?>
<svg xmlns="http://www.w3.org/2000/svg" xmlns:xlink="http://www.w3.org/1999/xlink" width="70px" height="70px" viewBox="0 0 70 70" version="1.1">
<g id="surface1">
<path style=" stroke:none;fill-rule:nonzero;fill:rgb(14.117647%,16.078431%,21.960784%);fill-opacity:1;" d="M 16.40625 0 L 53.59375 0 C 62.65625 0 70 7.34375 70 16.40625 L 70 53.59375 C 70 62.65625 62.65625 70 53.59375 70 L 16.40625 70 C 7.34375 70 0 62.65625 0 53.59375 L 0 16.40625 C 0 7.34375 7.34375 0 16.40625 0 Z M 16.40625 0 "/>
<path style=" stroke:none;fill-rule:nonzero;fill:rgb(50.588235%,80.392157%,22.352941%);fill-opacity:1;" d="M 32.777344 8.507812 C 34.125 7.738281 35.875 7.734375 37.21875 8.507812 C 43.980469 12.328125 50.742188 16.140625 57.5 19.964844 C 58.773438 20.679688 59.621094 22.09375 59.609375 23.558594 L 59.609375 46.539062 C 59.617188 48.066406 58.683594 49.515625 57.34375 50.214844 C 50.605469 54.011719 43.871094 57.816406 37.132812 61.617188 C 35.761719 62.398438 33.976562 62.339844 32.644531 61.492188 C 30.625 60.320312 28.601562 59.15625 26.582031 57.984375 C 26.167969 57.738281 25.703125 57.542969 25.410156 57.140625 C 25.667969 56.796875 26.128906 56.75 26.503906 56.601562 C 27.347656 56.332031 28.121094 55.902344 28.898438 55.484375 C 29.09375 55.351562 29.332031 55.402344 29.519531 55.519531 C 31.246094 56.511719 32.960938 57.53125 34.691406 58.511719 C 35.0625 58.726562 35.4375 58.441406 35.753906 58.265625 C 42.363281 54.527344 48.984375 50.804688 55.59375 47.066406 C 55.839844 46.949219 55.976562 46.691406 55.957031 46.421875 C 55.960938 38.839844 55.957031 31.257812 55.957031 23.675781 C 55.984375 23.371094 55.808594 23.09375 55.535156 22.96875 C 48.820312 19.1875 42.109375 15.398438 35.394531 11.617188 C 35.15625 11.453125 34.84375 11.453125 34.605469 11.617188 C 27.890625 15.398438 21.179688 19.191406 14.46875 22.972656 C 14.195312 23.097656 14.011719 23.371094 14.042969 23.675781 C 14.042969 31.257812 14.042969 38.839844 14.042969 46.421875 C 14.019531 46.691406 14.164062 46.945312 14.40625 47.0625 C 16.199219 48.078125 17.992188 49.085938 19.785156 50.097656 C 20.796875 50.640625 22.035156 50.964844 23.148438 50.546875 C 24.128906 50.195312 24.816406 49.195312 24.800781 48.152344 C 24.808594 40.613281 24.792969 33.078125 24.804688 25.542969 C 24.78125 25.207031 25.097656 24.929688 25.425781 24.960938 C 26.285156 24.957031 27.148438 24.949219 28.007812 24.964844 C 28.367188 24.957031 28.613281 25.316406 28.570312 25.652344 C 28.566406 33.238281 28.578125 40.824219 28.5625 48.40625 C 28.566406 50.429688 27.734375 52.628906 25.867188 53.617188 C 23.5625 54.808594 20.714844 54.558594 18.441406 53.414062 C 16.46875 52.429688 14.589844 51.269531 12.65625 50.214844 C 11.3125 49.519531 10.382812 48.066406 10.390625 46.539062 L 10.390625 23.558594 C 10.375 22.066406 11.261719 20.625 12.570312 19.917969 C 19.308594 16.117188 26.042969 12.3125 32.777344 8.507812 Z M 32.777344 8.507812 "/>
<path style=" stroke:none;fill-rule:nonzero;fill:rgb(50.588235%,80.392157%,22.352941%);fill-opacity:1;" d="M 38.65625 24.425781 C 41.59375 24.238281 44.738281 24.316406 47.382812 25.761719 C 49.429688 26.871094 50.566406 29.199219 50.601562 31.472656 C 50.542969 31.78125 50.222656 31.949219 49.929688 31.929688 C 49.078125 31.929688 48.226562 31.941406 47.375 31.921875 C 47.011719 31.9375 46.800781 31.605469 46.757812 31.285156 C 46.511719 30.195312 45.917969 29.117188 44.894531 28.59375 C 43.320312 27.804688 41.5 27.847656 39.785156 27.863281 C 38.53125 27.929688 37.1875 28.039062 36.125 28.773438 C 35.3125 29.332031 35.066406 30.457031 35.355469 31.363281 C 35.628906 32.011719 36.382812 32.222656 36.996094 32.417969 C 40.535156 33.34375 44.289062 33.25 47.761719 34.46875 C 49.199219 34.964844 50.605469 35.933594 51.097656 37.4375 C 51.742188 39.457031 51.460938 41.867188 50.023438 43.488281 C 48.859375 44.820312 47.164062 45.546875 45.472656 45.941406 C 43.222656 46.441406 40.890625 46.453125 38.605469 46.230469 C 36.457031 45.988281 34.21875 45.421875 32.5625 43.957031 C 31.144531 42.726562 30.449219 40.808594 30.519531 38.957031 C 30.535156 38.644531 30.847656 38.425781 31.144531 38.449219 C 32.003906 38.445312 32.863281 38.441406 33.722656 38.453125 C 34.066406 38.429688 34.320312 38.722656 34.335938 39.046875 C 34.496094 40.085938 34.882812 41.171875 35.789062 41.785156 C 37.53125 42.914062 39.722656 42.835938 41.71875 42.867188 C 43.375 42.792969 45.234375 42.769531 46.582031 41.675781 C 47.296875 41.054688 47.507812 40.007812 47.316406 39.113281 C 47.105469 38.351562 46.3125 38 45.632812 37.769531 C 42.136719 36.664062 38.34375 37.0625 34.882812 35.8125 C 33.476562 35.316406 32.117188 34.378906 31.578125 32.933594 C 30.824219 30.890625 31.167969 28.363281 32.753906 26.796875 C 34.300781 25.242188 36.535156 24.640625 38.65625 24.425781 "/>
</g>
</svg>
