<?xml version="1.0" encoding="UTF-8"?>
<svg xmlns="http://www.w3.org/2000/svg" xmlns:xlink="http://www.w3.org/1999/xlink" width="70px" height="70px" viewBox="0 0 70 70" version="1.1">
<g id="surface1">
<path style=" stroke:none;fill-rule:nonzero;fill:rgb(100%,42.352941%,21.568627%);fill-opacity:1;" d="M 69.714844 39.445312 C 72.164062 20.269531 58.621094 2.734375 39.480469 0.285156 C 20.335938 -2.164062 2.734375 11.378906 0.285156 30.519531 C -2.164062 49.664062 11.378906 67.230469 30.519531 69.714844 C 49.699219 72.164062 67.230469 58.621094 69.714844 39.445312 Z M 69.714844 39.445312 "/>
<path style=" stroke:none;fill-rule:nonzero;fill:rgb(100%,100%,100%);fill-opacity:1;" d="M 47.632812 22.472656 L 32.867188 37.238281 L 28.699219 33.074219 C 43.222656 18.554688 44.660156 19.8125 47.632812 22.472656 Z M 47.632812 22.472656 "/>
<path style=" stroke:none;fill-rule:nonzero;fill:rgb(100%,42.352941%,21.568627%);fill-opacity:1;" d="M 32.867188 37.589844 C 32.761719 37.589844 32.691406 37.554688 32.621094 37.484375 L 28.421875 33.320312 C 28.28125 33.179688 28.28125 32.96875 28.421875 32.832031 C 43.1875 18.0625 44.726562 19.460938 47.84375 22.261719 C 47.914062 22.332031 47.949219 22.402344 47.949219 22.507812 C 47.949219 22.613281 47.914062 22.683594 47.84375 22.753906 L 33.074219 37.484375 C 33.039062 37.554688 32.933594 37.589844 32.867188 37.589844 Z M 29.191406 33.074219 L 32.867188 36.75 L 47.109375 22.507812 C 44.519531 20.199219 42.769531 19.496094 29.191406 33.074219 Z M 29.191406 33.074219 "/>
<path style=" stroke:none;fill-rule:nonzero;fill:rgb(100%,100%,100%);fill-opacity:1;" d="M 37.101562 41.472656 L 33.074219 37.449219 L 47.84375 22.683594 C 51.796875 26.671875 45.882812 33.144531 37.101562 41.472656 Z M 37.101562 41.472656 "/>
<path style=" stroke:none;fill-rule:nonzero;fill:rgb(100%,42.352941%,21.568627%);fill-opacity:1;" d="M 37.101562 41.824219 C 36.996094 41.824219 36.925781 41.789062 36.855469 41.71875 L 32.832031 37.695312 C 32.761719 37.625 32.761719 37.554688 32.761719 37.449219 C 32.761719 37.34375 32.796875 37.273438 32.867188 37.203125 L 47.632812 22.4375 C 47.773438 22.296875 47.984375 22.296875 48.121094 22.4375 C 49.03125 23.277344 49.523438 24.46875 49.488281 25.691406 C 49.417969 29.574219 45.007812 34.511719 37.378906 41.71875 C 37.273438 41.789062 37.167969 41.824219 37.101562 41.824219 Z M 33.566406 37.449219 C 35.804688 39.722656 36.75 40.632812 37.101562 40.984375 C 42.980469 35.386719 48.683594 29.644531 48.71875 25.691406 C 48.753906 24.78125 48.402344 23.871094 47.808594 23.171875 Z M 33.566406 37.449219 "/>
<path style=" stroke:none;fill-rule:nonzero;fill:rgb(100%,100%,100%);fill-opacity:1;" d="M 28.769531 33.179688 L 31.746094 36.15625 C 31.816406 36.226562 31.816406 36.292969 31.746094 36.363281 C 31.710938 36.398438 31.710938 36.398438 31.675781 36.398438 L 25.515625 37.730469 C 25.203125 37.765625 24.921875 37.554688 24.851562 37.238281 C 24.816406 37.066406 24.886719 36.890625 24.992188 36.785156 L 28.5625 33.214844 C 28.632812 33.144531 28.734375 33.109375 28.769531 33.179688 Z M 28.769531 33.179688 "/>
<path style=" stroke:none;fill-rule:nonzero;fill:rgb(100%,42.352941%,21.568627%);fill-opacity:1;" d="M 25.410156 38.078125 C 24.886719 38.078125 24.5 37.660156 24.5 37.132812 C 24.5 36.890625 24.605469 36.644531 24.78125 36.46875 L 28.351562 32.898438 C 28.5625 32.726562 28.839844 32.726562 29.050781 32.898438 L 32.027344 35.875 C 32.234375 36.050781 32.234375 36.363281 32.027344 36.574219 C 31.957031 36.644531 31.886719 36.679688 31.78125 36.714844 L 25.621094 38.042969 C 25.550781 38.042969 25.480469 38.078125 25.410156 38.078125 Z M 28.667969 33.566406 L 25.238281 36.996094 C 25.167969 37.066406 25.132812 37.167969 25.203125 37.273438 C 25.238281 37.378906 25.339844 37.414062 25.445312 37.378906 L 31.21875 36.121094 Z M 28.667969 33.566406 "/>
<path style=" stroke:none;fill-rule:nonzero;fill:rgb(100%,100%,100%);fill-opacity:1;" d="M 55.4375 14.285156 C 53.195312 12.113281 49.59375 12.183594 47.421875 14.457031 C 45.253906 16.734375 45.324219 20.300781 47.597656 22.472656 C 49.453125 24.257812 52.25 24.570312 54.457031 23.242188 L 50.46875 19.253906 Z M 55.4375 14.285156 "/>
<path style=" stroke:none;fill-rule:nonzero;fill:rgb(100%,42.352941%,21.568627%);fill-opacity:1;" d="M 51.515625 24.398438 C 48.191406 24.398438 45.5 21.703125 45.5 18.378906 C 45.5 15.054688 48.191406 12.359375 51.515625 12.359375 C 53.058594 12.359375 54.5625 12.953125 55.679688 14.039062 C 55.75 14.109375 55.785156 14.179688 55.785156 14.285156 C 55.785156 14.390625 55.75 14.457031 55.679688 14.527344 L 50.957031 19.253906 L 54.667969 22.960938 C 54.804688 23.101562 54.804688 23.3125 54.667969 23.453125 C 54.632812 23.488281 54.632812 23.488281 54.597656 23.523438 C 53.6875 24.082031 52.601562 24.398438 51.515625 24.398438 Z M 51.515625 13.09375 C 48.578125 13.09375 46.199219 15.472656 46.234375 18.414062 C 46.234375 21.351562 48.613281 23.730469 51.550781 23.695312 C 52.355469 23.695312 53.160156 23.523438 53.898438 23.136719 L 50.222656 19.496094 C 50.152344 19.429688 50.117188 19.359375 50.117188 19.253906 C 50.117188 19.148438 50.152344 19.078125 50.222656 19.007812 L 54.910156 14.320312 C 53.964844 13.515625 52.777344 13.09375 51.515625 13.09375 Z M 51.515625 13.09375 "/>
<path style=" stroke:none;fill-rule:nonzero;fill:rgb(100%,100%,100%);fill-opacity:1;" d="M 55.542969 14.390625 L 55.472656 14.320312 L 50.46875 19.253906 L 54.421875 23.207031 C 54.804688 22.960938 55.191406 22.683594 55.507812 22.367188 C 57.746094 20.164062 57.746094 16.59375 55.542969 14.390625 Z M 55.542969 14.390625 "/>
<path style=" stroke:none;fill-rule:nonzero;fill:rgb(100%,42.352941%,21.568627%);fill-opacity:1;" d="M 54.457031 23.59375 C 54.351562 23.59375 54.28125 23.558594 54.210938 23.488281 L 50.222656 19.496094 C 50.152344 19.429688 50.117188 19.359375 50.117188 19.253906 C 50.117188 19.148438 50.152344 19.078125 50.222656 19.007812 L 55.191406 14.039062 C 55.332031 13.898438 55.542969 13.898438 55.679688 14.039062 L 55.785156 14.109375 C 58.128906 16.453125 58.128906 20.234375 55.820312 22.613281 C 55.472656 22.960938 55.085938 23.277344 54.667969 23.523438 C 54.5625 23.558594 54.492188 23.59375 54.457031 23.59375 Z M 50.957031 19.253906 L 54.492188 22.789062 C 54.769531 22.613281 55.050781 22.367188 55.261719 22.15625 C 57.257812 20.164062 57.359375 16.910156 55.4375 14.808594 Z M 50.957031 19.253906 "/>
<path style=" stroke:none;fill-rule:nonzero;fill:rgb(100%,100%,100%);fill-opacity:1;" d="M 48.226562 23.101562 C 47.386719 22.261719 46.023438 22.261719 45.183594 23.101562 L 31.992188 36.292969 L 34.195312 38.5 L 48.15625 26.25 C 49.066406 25.480469 49.136719 24.117188 48.367188 23.207031 C 48.296875 23.171875 48.261719 23.136719 48.226562 23.101562 Z M 48.226562 23.101562 "/>
<path style=" stroke:none;fill-rule:nonzero;fill:rgb(100%,42.352941%,21.568627%);fill-opacity:1;" d="M 34.160156 38.847656 C 34.054688 38.847656 33.984375 38.8125 33.914062 38.746094 L 31.710938 36.539062 C 31.570312 36.398438 31.570312 36.191406 31.710938 36.050781 L 44.902344 22.855469 C 45.882812 21.878906 47.457031 21.878906 48.4375 22.855469 C 49.417969 23.835938 49.417969 25.410156 48.4375 26.390625 C 48.402344 26.425781 48.367188 26.460938 48.332031 26.496094 L 34.371094 38.746094 C 34.335938 38.8125 34.265625 38.847656 34.160156 38.847656 Z M 32.480469 36.292969 L 34.195312 38.007812 L 47.914062 25.972656 C 48.683594 25.339844 48.753906 24.1875 48.121094 23.417969 C 47.492188 22.648438 46.339844 22.578125 45.566406 23.207031 C 45.53125 23.242188 45.5 23.277344 45.429688 23.3125 Z M 32.480469 36.292969 "/>
<path style=" stroke:none;fill-rule:nonzero;fill:rgb(100%,100%,100%);fill-opacity:1;" d="M 21.878906 51.308594 C 21.738281 51.378906 21.667969 51.515625 21.703125 51.65625 L 22.296875 54.175781 C 22.4375 54.527344 22.226562 54.945312 21.84375 55.050781 C 21.5625 55.15625 21.246094 55.050781 21.074219 54.839844 L 17.222656 51.027344 L 29.785156 38.464844 L 34.125 38.535156 L 37.066406 41.472656 C 36.363281 42.070312 32.128906 46.164062 21.878906 51.308594 Z M 21.878906 51.308594 "/>
<path style=" stroke:none;fill-rule:nonzero;fill:rgb(100%,42.352941%,21.568627%);fill-opacity:1;" d="M 21.597656 55.402344 C 21.316406 55.402344 21.039062 55.296875 20.863281 55.085938 L 17.046875 51.273438 C 16.976562 51.203125 16.941406 51.132812 16.941406 51.027344 C 16.941406 50.921875 16.976562 50.851562 17.046875 50.78125 L 29.609375 38.21875 C 29.679688 38.148438 29.785156 38.113281 29.855469 38.113281 L 34.195312 38.183594 C 34.300781 38.183594 34.371094 38.21875 34.441406 38.289062 L 37.378906 41.230469 C 37.449219 41.300781 37.484375 41.402344 37.484375 41.507812 C 37.484375 41.613281 37.449219 41.683594 37.34375 41.753906 L 37.101562 41.964844 C 33.390625 45.21875 28.351562 48.472656 22.085938 51.585938 L 22.683594 54.070312 C 22.789062 54.527344 22.578125 55.015625 22.15625 55.261719 C 21.949219 55.367188 21.773438 55.402344 21.597656 55.402344 Z M 17.75 51.027344 L 21.351562 54.597656 C 21.457031 54.769531 21.667969 54.839844 21.84375 54.738281 C 22.015625 54.632812 22.085938 54.421875 21.980469 54.246094 L 21.386719 51.726562 C 21.316406 51.410156 21.457031 51.132812 21.738281 50.992188 C 27.929688 47.878906 32.933594 44.660156 36.609375 41.472656 L 34.019531 38.882812 L 29.996094 38.8125 Z M 17.75 51.027344 "/>
<path style=" stroke:none;fill-rule:nonzero;fill:rgb(100%,100%,100%);fill-opacity:1;" d="M 14.25 54.035156 L 17.257812 51.027344 L 21.738281 55.507812 L 14.597656 55.015625 C 14.285156 54.980469 14.074219 54.703125 14.109375 54.386719 C 14.109375 54.246094 14.144531 54.105469 14.25 54.035156 Z M 14.25 54.035156 "/>
<path style=" stroke:none;fill-rule:nonzero;fill:rgb(100%,42.352941%,21.568627%);fill-opacity:1;" d="M 21.738281 55.820312 L 14.5625 55.332031 C 14.039062 55.296875 13.6875 54.839844 13.722656 54.316406 C 13.757812 54.105469 13.828125 53.898438 14.003906 53.757812 L 17.011719 50.746094 C 17.152344 50.605469 17.363281 50.605469 17.503906 50.746094 L 21.980469 55.226562 C 22.085938 55.332031 22.121094 55.472656 22.050781 55.609375 C 21.980469 55.75 21.878906 55.820312 21.738281 55.820312 Z M 17.257812 51.515625 L 14.492188 54.28125 C 14.390625 54.351562 14.390625 54.527344 14.492188 54.597656 C 14.527344 54.632812 14.5625 54.667969 14.632812 54.667969 L 20.828125 55.085938 Z M 17.257812 51.515625 "/>
<path style=" stroke:none;fill-rule:nonzero;fill:rgb(100%,42.352941%,21.568627%);fill-opacity:1;" d="M 28.5625 40.074219 C 28.351562 40.074219 28.210938 39.898438 28.210938 39.722656 C 28.210938 39.621094 28.246094 39.550781 28.316406 39.480469 L 31.710938 36.085938 C 31.851562 35.945312 32.058594 35.945312 32.199219 36.085938 L 34.40625 38.289062 C 34.511719 38.394531 34.546875 38.5 34.511719 38.640625 C 34.476562 38.746094 34.371094 38.847656 34.230469 38.882812 L 28.632812 40.074219 C 28.597656 40.074219 28.5625 40.074219 28.5625 40.074219 Z M 31.957031 36.820312 L 29.644531 39.128906 L 33.425781 38.324219 Z M 31.957031 36.820312 "/>
<path style=" stroke:none;fill-rule:nonzero;fill:rgb(100%,100%,100%);fill-opacity:1;" d="M 34.125 38.535156 L 30.277344 39.375 C 29.996094 39.445312 29.714844 39.269531 29.644531 38.988281 C 29.609375 38.8125 29.644531 38.640625 29.785156 38.5 L 31.921875 36.363281 Z M 34.125 38.535156 "/>
<path style=" stroke:none;fill-rule:nonzero;fill:rgb(100%,42.352941%,21.568627%);fill-opacity:1;" d="M 30.207031 39.722656 C 29.714844 39.722656 29.332031 39.339844 29.332031 38.847656 C 29.332031 38.605469 29.4375 38.394531 29.574219 38.21875 L 31.710938 36.085938 C 31.851562 35.945312 32.058594 35.945312 32.199219 36.085938 L 34.40625 38.289062 C 34.511719 38.394531 34.546875 38.5 34.511719 38.640625 C 34.476562 38.746094 34.371094 38.847656 34.230469 38.882812 L 30.378906 39.722656 C 30.3125 39.722656 30.242188 39.722656 30.207031 39.722656 Z M 31.957031 36.820312 L 30.066406 38.710938 C 29.996094 38.78125 29.996094 38.847656 30.03125 38.917969 C 30.066406 38.988281 30.136719 39.023438 30.242188 39.023438 L 33.460938 38.324219 Z M 31.957031 36.820312 "/>
<path style=" stroke:none;fill-rule:nonzero;fill:rgb(100%,42.352941%,21.568627%);fill-opacity:1;" d="M 55.578125 17.75 C 55.507812 17.539062 55.261719 17.433594 55.050781 17.503906 C 54.839844 17.574219 54.738281 17.816406 54.804688 18.027344 C 54.804688 18.0625 54.839844 18.097656 54.839844 18.132812 C 55.050781 18.554688 54.980469 19.078125 54.703125 19.460938 C 54.5625 19.636719 54.597656 19.882812 54.738281 20.023438 C 54.910156 20.164062 55.15625 20.128906 55.296875 19.953125 C 55.820312 19.289062 55.925781 18.449219 55.578125 17.75 Z M 55.578125 17.75 "/>
</g>
</svg>
