<?xml version="1.0" encoding="UTF-8"?>
<svg xmlns="http://www.w3.org/2000/svg" xmlns:xlink="http://www.w3.org/1999/xlink" width="40px" height="40px" viewBox="0 0 40 40" version="1.1">
<g id="surface1">
<path style=" stroke:none;fill-rule:nonzero;fill:rgb(94.901961%,94.901961%,94.901961%);fill-opacity:1;" d="M 40 20 C 40 31.046875 31.046875 40 20 40 C 8.953125 40 0 31.046875 0 20 C 0 8.953125 8.953125 0 20 0 C 31.046875 0 40 8.953125 40 20 Z M 40 20 "/>
<path style=" stroke:none;fill-rule:nonzero;fill:rgb(92.941176%,10.980392%,14.117647%);fill-opacity:1;" d="M 26.015625 31.824219 C 22.066406 33.28125 17.730469 33.28125 13.78125 31.824219 C 13.417969 31.695312 13.128906 31.265625 13.128906 30.894531 L 13.128906 29.941406 C 13.128906 29.570312 13.417969 29.390625 13.78125 29.519531 C 17.730469 30.972656 22.066406 30.972656 26.015625 29.519531 C 26.378906 29.390625 26.667969 29.570312 26.667969 29.941406 L 26.667969 30.894531 C 26.660156 31.265625 26.371094 31.695312 26.015625 31.824219 Z M 26.015625 31.824219 "/>
<path style=" stroke:none;fill-rule:nonzero;fill:rgb(75.686275%,15.294118%,17.647059%);fill-opacity:1;" d="M 26.015625 30.660156 C 22.066406 32.683594 17.730469 32.683594 13.78125 30.660156 C 13.417969 30.480469 13.128906 29.882812 13.128906 29.367188 L 13.128906 28.050781 C 13.128906 27.535156 13.417969 27.28125 13.78125 27.46875 C 17.730469 29.492188 22.066406 29.492188 26.015625 27.46875 C 26.378906 27.289062 26.667969 27.535156 26.667969 28.050781 L 26.667969 29.367188 C 26.660156 29.882812 26.371094 30.480469 26.015625 30.660156 Z M 26.015625 30.660156 "/>
<path style=" stroke:none;fill-rule:nonzero;fill:rgb(75.686275%,15.294118%,17.647059%);fill-opacity:1;" d="M 20.457031 32.320312 C 20.457031 32.011719 20.207031 31.761719 19.898438 31.761719 C 19.589844 31.761719 19.339844 32.011719 19.339844 32.320312 C 19.339844 32.628906 19.589844 32.878906 19.898438 32.878906 C 20.207031 32.878906 20.457031 32.628906 20.457031 32.320312 Z M 20.457031 32.320312 "/>
<path style=" stroke:none;fill-rule:nonzero;fill:rgb(100%,57.647059%,11.764706%);fill-opacity:1;" d="M 20.378906 32.238281 C 20.378906 31.976562 20.164062 31.761719 19.898438 31.761719 C 19.632812 31.761719 19.417969 31.976562 19.417969 32.238281 C 19.417969 32.503906 19.632812 32.71875 19.898438 32.71875 C 20.164062 32.71875 20.378906 32.503906 20.378906 32.238281 Z M 20.378906 32.238281 "/>
<path style=" stroke:none;fill-rule:nonzero;fill:rgb(100%,72.156863%,11.764706%);fill-opacity:1;" d="M 20.203125 32.40625 C 20.203125 32.316406 20.128906 32.238281 20.035156 32.238281 C 19.945312 32.238281 19.867188 32.316406 19.867188 32.40625 C 19.867188 32.5 19.945312 32.574219 20.035156 32.574219 C 20.128906 32.574219 20.203125 32.5 20.203125 32.40625 Z M 20.203125 32.40625 "/>
<path style=" stroke:none;fill-rule:nonzero;fill:rgb(100%,57.647059%,11.764706%);fill-opacity:1;" d="M 21.394531 34.136719 C 21.394531 33.3125 20.726562 32.640625 19.898438 32.640625 C 19.070312 32.640625 18.398438 33.3125 18.398438 34.136719 C 18.398438 34.964844 19.070312 35.636719 19.898438 35.636719 C 20.726562 35.636719 21.394531 34.964844 21.394531 34.136719 Z M 21.394531 34.136719 "/>
<path style=" stroke:none;fill-rule:nonzero;fill:rgb(100%,72.156863%,11.764706%);fill-opacity:1;" d="M 21.242188 34.152344 C 21.242188 34.894531 20.640625 35.5 19.898438 35.5 C 19.15625 35.5 18.550781 34.894531 18.550781 34.152344 C 18.550781 33.410156 19.15625 32.808594 19.898438 32.808594 C 20.640625 32.808594 21.242188 33.410156 21.242188 34.152344 Z M 21.242188 34.152344 "/>
<path style=" stroke:none;fill-rule:nonzero;fill:rgb(100%,57.647059%,11.764706%);fill-opacity:1;" d="M 20.289062 33.722656 C 20.371094 33.796875 20.414062 33.898438 20.414062 34.042969 C 20.414062 34.1875 20.371094 34.289062 20.289062 34.363281 C 20.203125 34.429688 20.078125 34.464844 19.90625 34.464844 L 19.753906 34.464844 L 19.753906 34.792969 L 19.492188 34.792969 L 19.492188 33.621094 L 19.90625 33.621094 C 20.078125 33.621094 20.210938 33.652344 20.289062 33.722656 Z M 20.101562 34.183594 C 20.132812 34.144531 20.144531 34.09375 20.144531 34.027344 C 20.144531 33.964844 20.125 33.914062 20.085938 33.882812 C 20.042969 33.855469 19.984375 33.839844 19.898438 33.839844 L 19.753906 33.839844 L 19.753906 34.234375 L 19.925781 34.234375 C 20.015625 34.234375 20.074219 34.21875 20.101562 34.183594 Z M 20.101562 34.183594 "/>
<path style=" stroke:none;fill-rule:nonzero;fill:rgb(96.862745%,74.117647%,53.72549%);fill-opacity:1;" d="M 32.035156 21.949219 C 32.398438 26.929688 27.011719 31.402344 19.972656 31.394531 C 12.9375 31.402344 7.542969 26.929688 7.90625 21.949219 C 8.269531 16.953125 13.6875 12.828125 19.984375 12.820312 C 26.289062 12.828125 31.664062 16.953125 32.035156 21.949219 Z M 32.035156 21.949219 "/>
<path style=" stroke:none;fill-rule:nonzero;fill:rgb(98.431373%,83.529412%,62.745098%);fill-opacity:1;" d="M 19.949219 12.125 C 13.332031 12.125 7.183594 16.785156 8.347656 23.882812 C 8.582031 24.539062 8.96875 26.238281 10.808594 27.746094 C 11.359375 28.195312 12.3125 28.574219 12.761719 28.269531 C 13.921875 27.484375 11.867188 25.230469 14.210938 23.148438 L 14.160156 23.148438 C 15.433594 22.183594 17.238281 21.410156 19.933594 21.410156 C 22.632812 21.410156 24.4375 22.183594 25.710938 23.148438 L 25.65625 23.148438 C 28 25.230469 25.957031 27.484375 27.105469 28.269531 C 27.554688 28.574219 28.515625 28.195312 29.0625 27.746094 C 30.902344 26.238281 31.292969 24.539062 31.527344 23.882812 C 32.691406 16.777344 26.566406 12.125 19.949219 12.125 Z M 19.949219 12.125 "/>
<path style=" stroke:none;fill-rule:nonzero;fill:rgb(0%,0%,0%);fill-opacity:1;" d="M 25.644531 23.914062 C 24.53125 22.546875 22.421875 21.222656 19.972656 21.222656 L 19.941406 21.222656 C 17.484375 21.222656 15.375 22.546875 14.269531 23.914062 C 13.121094 25.308594 13.535156 25.90625 13.535156 27.242188 C 13.535156 32.085938 15.230469 30.675781 16.371094 31.257812 C 17.535156 31.824219 18.710938 31.621094 19.949219 31.621094 L 19.972656 31.621094 C 21.207031 31.621094 22.386719 31.824219 23.550781 31.25 C 24.683594 30.667969 26.386719 32.09375 26.386719 27.25 C 26.378906 25.921875 26.792969 25.308594 25.644531 23.914062 Z M 25.644531 23.914062 "/>
<path style=" stroke:none;fill-rule:nonzero;fill:rgb(96.862745%,74.117647%,53.72549%);fill-opacity:1;" d="M 13.8125 21.761719 C 13.8125 22.878906 12.902344 23.789062 11.78125 23.789062 C 10.660156 23.789062 9.753906 22.878906 9.753906 21.761719 C 9.753906 20.640625 10.660156 19.730469 11.78125 19.730469 C 12.902344 19.730469 13.8125 20.640625 13.8125 21.761719 Z M 13.8125 21.761719 "/>
<path style=" stroke:none;fill-rule:nonzero;fill:rgb(0%,0%,0%);fill-opacity:1;" d="M 13.992188 21.417969 C 13.992188 22.539062 13.085938 23.445312 11.964844 23.445312 C 10.84375 23.445312 9.933594 22.539062 9.933594 21.417969 C 9.933594 20.296875 10.84375 19.390625 11.964844 19.390625 C 13.085938 19.390625 13.992188 20.296875 13.992188 21.417969 Z M 13.992188 21.417969 "/>
<path style=" stroke:none;fill-rule:nonzero;fill:rgb(100%,100%,100%);fill-opacity:1;" d="M 13.003906 20.507812 C 13.003906 20.796875 12.769531 21.03125 12.480469 21.03125 C 12.191406 21.03125 11.957031 20.796875 11.957031 20.507812 C 11.957031 20.21875 12.191406 19.984375 12.480469 19.984375 C 12.769531 19.984375 13.003906 20.21875 13.003906 20.507812 Z M 13.003906 20.507812 "/>
<path style=" stroke:none;fill-rule:nonzero;fill:rgb(96.862745%,74.117647%,53.72549%);fill-opacity:1;" d="M 30.101562 21.761719 C 30.101562 22.878906 29.195312 23.789062 28.074219 23.789062 C 26.953125 23.789062 26.042969 22.878906 26.042969 21.761719 C 26.042969 20.640625 26.953125 19.730469 28.074219 19.730469 C 29.195312 19.730469 30.101562 20.640625 30.101562 21.761719 Z M 30.101562 21.761719 "/>
<path style=" stroke:none;fill-rule:nonzero;fill:rgb(0%,0%,0%);fill-opacity:1;" d="M 29.984375 21.417969 C 29.984375 22.539062 29.078125 23.445312 27.957031 23.445312 C 26.835938 23.445312 25.925781 22.539062 25.925781 21.417969 C 25.925781 20.296875 26.835938 19.390625 27.957031 19.390625 C 29.078125 19.390625 29.984375 20.296875 29.984375 21.417969 Z M 29.984375 21.417969 "/>
<path style=" stroke:none;fill-rule:nonzero;fill:rgb(100%,100%,100%);fill-opacity:1;" d="M 28.996094 20.507812 C 28.996094 20.796875 28.761719 21.03125 28.472656 21.03125 C 28.183594 21.03125 27.949219 20.796875 27.949219 20.507812 C 27.949219 20.21875 28.183594 19.984375 28.472656 19.984375 C 28.761719 19.984375 28.996094 20.21875 28.996094 20.507812 Z M 28.996094 20.507812 "/>
<path style=" stroke:none;fill-rule:nonzero;fill:rgb(96.862745%,74.117647%,53.72549%);fill-opacity:1;" d="M 15.679688 13.941406 C 15.679688 13.941406 8.808594 15.128906 8.53125 23.339844 C 8.523438 23.460938 8.394531 23.542969 8.285156 23.476562 L 8.066406 23.34375 L 7.898438 21.191406 L 8.210938 16.800781 L 11.078125 14.683594 L 13.652344 13.644531 Z M 24.210938 13.941406 C 24.210938 13.941406 31.082031 15.128906 31.359375 23.339844 C 31.367188 23.460938 31.5 23.542969 31.605469 23.476562 L 31.824219 23.34375 L 31.992188 21.191406 L 31.679688 16.800781 L 28.816406 14.683594 L 26.238281 13.644531 Z M 24.210938 13.941406 "/>
<path style=" stroke:none;fill-rule:nonzero;fill:rgb(30.196078%,30.196078%,30.196078%);fill-opacity:1;" d="M 19.804688 28.5625 L 19.804688 24.421875 L 20.109375 24.421875 L 20.109375 28.554688 C 20.554688 28.605469 21.132812 28.867188 21.6875 29.03125 C 22.261719 29.238281 22.816406 29.316406 22.597656 29.34375 C 21.839844 29.375 21.011719 29.089844 19.992188 29.105469 C 18.96875 29.089844 18.136719 29.375 17.390625 29.34375 C 17.171875 29.308594 17.722656 29.230469 18.296875 29.03125 C 18.824219 28.875 19.367188 28.632812 19.804688 28.5625 Z M 21.855469 23.027344 C 22.09375 23.554688 21.265625 24.421875 19.949219 24.421875 C 18.632812 24.421875 17.804688 23.554688 18.042969 23.027344 C 18.277344 22.480469 19.113281 22.304688 19.949219 22.296875 C 20.785156 22.304688 21.621094 22.480469 21.855469 23.027344 Z M 21.855469 23.027344 "/>
<path style=" stroke:none;fill-rule:nonzero;fill:rgb(0%,0%,0%);fill-opacity:1;" d="M 15.679688 13.941406 C 15.679688 13.941406 7.585938 15.0625 8.285156 23.097656 C 8.320312 23.503906 6.667969 21.359375 5.390625 20.707031 C 4.109375 20.050781 4.152344 17.933594 4.152344 17.933594 C 4.152344 17.933594 4.128906 14.246094 9.300781 13.15625 C 14.464844 12.074219 15.679688 13.941406 15.679688 13.941406 Z M 24.210938 13.941406 C 24.210938 13.941406 32.304688 15.0625 31.605469 23.097656 C 31.570312 23.503906 33.222656 21.359375 34.5 20.707031 C 35.78125 20.050781 35.738281 17.933594 35.738281 17.933594 C 35.738281 17.933594 35.761719 14.246094 30.589844 13.15625 C 25.425781 12.074219 24.210938 13.941406 24.210938 13.941406 Z M 24.210938 13.941406 "/>
<path style=" stroke:none;fill-rule:nonzero;fill:rgb(96.862745%,74.117647%,53.72549%);fill-opacity:1;" d="M 19.957031 19.730469 C 17.441406 19.730469 14.894531 22.203125 15.425781 21.925781 C 16.40625 21.410156 16.972656 20.5 19.957031 20.5 C 22.9375 20.5 23.5 21.410156 24.488281 21.925781 C 25.019531 22.203125 22.472656 19.730469 19.957031 19.730469 Z M 19.957031 19.730469 "/>
<path style=" stroke:none;fill-rule:nonzero;fill:rgb(96.862745%,74.117647%,53.72549%);fill-opacity:1;" d="M 19.957031 18.648438 C 18.042969 18.648438 16.117188 20.523438 16.515625 20.3125 C 17.265625 19.921875 18.226562 19.230469 19.957031 19.230469 C 21.6875 19.230469 22.648438 19.921875 23.394531 20.3125 C 23.796875 20.523438 21.867188 18.648438 19.957031 18.648438 Z M 19.941406 12.558594 C 17.832031 12.558594 15.695312 13.765625 16.136719 13.628906 C 16.96875 13.375 18.027344 12.929688 19.941406 12.929688 C 21.855469 12.929688 22.917969 13.375 23.746094 13.628906 C 24.1875 13.765625 22.058594 12.558594 19.941406 12.558594 Z M 19.941406 12.558594 "/>
<path style=" stroke:none;fill-rule:nonzero;fill:rgb(50.196078%,50.196078%,50.196078%);fill-opacity:1;" d="M 20.429688 22.734375 C 20.488281 22.867188 20.285156 23.078125 19.957031 23.078125 C 19.628906 23.078125 19.425781 22.867188 19.484375 22.734375 C 19.542969 22.605469 19.746094 22.558594 19.957031 22.550781 C 20.160156 22.550781 20.371094 22.597656 20.429688 22.734375 Z M 20.429688 22.734375 "/>
</g>
</svg>
